<svg xmlns="http://www.w3.org/2000/svg" width="2066.32" height="89.22" viewBox="0 0 2066.32 89.22">
  <defs>
    <style>
      .cls-1 {
        fill: #661300;
        stroke: #661300;
      }

      .cls-1, .cls-2, .cls-3, .cls-4, .cls-5 {
        stroke-miterlimit: 10;
        opacity: 0.3;
      }

      .cls-2 {
        fill: #997801;
        stroke: #997801;
      }

      .cls-3 {
        fill: #6808cc;
        stroke: #6808cc;
        stroke-width: 1.23px;
      }

      .cls-4 {
        fill: #002e99;
        stroke: #002e99;
      }

      .cls-5 {
        fill: #176600;
        stroke: #176600;
      }

      .cls-6 {
        opacity: 0.75;
      }

      .cls-7 {
        opacity: 0.5;
      }
    </style>
  </defs>
  <g id="command_boxes" data-name="command boxes">
    <g>
      <g>
        <path d="M36.43,57.71A8.38,8.38,0,0,1,33,57a7.54,7.54,0,0,1-2.66-2,9.12,9.12,0,0,1-1.72-3.19,14.16,14.16,0,0,1-.6-4.31,11.77,11.77,0,0,1,.74-4.27,10.32,10.32,0,0,1,2-3.22,8.93,8.93,0,0,1,2.82-2,8.19,8.19,0,0,1,3.32-.71A7,7,0,0,1,40,38a10.23,10.23,0,0,1,2.66,1.85h.12l-.16-3.59V28.74h3.28V57.23H43.15l-.28-2.56h-.12a11.81,11.81,0,0,1-2.86,2.14A7.26,7.26,0,0,1,36.43,57.71Zm.68-2.77q2.88,0,5.48-2.92V42.35A8.53,8.53,0,0,0,40,40.59a6.54,6.54,0,0,0-2.54-.53,5.36,5.36,0,0,0-2.38.54,6,6,0,0,0-1.92,1.53,7.55,7.55,0,0,0-1.3,2.34,9.06,9.06,0,0,0-.48,3A8.81,8.81,0,0,0,32.89,53,5,5,0,0,0,37.11,54.94Z"/>
        <path d="M61.59,57.71A9.84,9.84,0,0,1,57.93,57a9,9,0,0,1-3.06-2,9.57,9.57,0,0,1-2.1-3.2,12.35,12.35,0,0,1,0-8.64A9.71,9.71,0,0,1,54.87,40a8.92,8.92,0,0,1,3.06-2,10.33,10.33,0,0,1,7.32,0,8.92,8.92,0,0,1,3.06,2,9.71,9.71,0,0,1,2.1,3.23,12.35,12.35,0,0,1,0,8.64,9.57,9.57,0,0,1-2.1,3.2,9,9,0,0,1-3.06,2A9.84,9.84,0,0,1,61.59,57.71Zm0-2.73a5.7,5.7,0,0,0,2.54-.54,5.56,5.56,0,0,0,2-1.51,6.93,6.93,0,0,0,1.26-2.34,9.66,9.66,0,0,0,.44-3,9.9,9.9,0,0,0-.44-3.07,7,7,0,0,0-1.26-2.38,5.76,5.76,0,0,0-2-1.54,6.24,6.24,0,0,0-5.08,0,5.86,5.86,0,0,0-2,1.54,7.4,7.4,0,0,0-1.26,2.38,10.21,10.21,0,0,0-.44,3.07,10,10,0,0,0,.44,3,7.3,7.3,0,0,0,1.26,2.34,5.65,5.65,0,0,0,2,1.51A5.73,5.73,0,0,0,61.59,55Z"/>
        <path d="M87.43,57.71A12.54,12.54,0,0,1,83.21,57a9.9,9.9,0,0,1-3.38-2,9.06,9.06,0,0,1-2.24-3.2,11.1,11.1,0,0,1-.8-4.3,10.44,10.44,0,0,1,.86-4.34A9.7,9.7,0,0,1,80,40a10.17,10.17,0,0,1,3.46-2,12.89,12.89,0,0,1,4.18-.67,9.58,9.58,0,0,1,4.14.83,11.51,11.51,0,0,1,2.94,2l-1.64,2.13a10.06,10.06,0,0,0-2.5-1.64A6.61,6.61,0,0,0,87.75,40a8.74,8.74,0,0,0-3.08.54,6.94,6.94,0,0,0-2.38,1.54,7.46,7.46,0,0,0-1.54,2.38,8.76,8.76,0,0,0,0,6.11,7,7,0,0,0,1.52,2.34,6.73,6.73,0,0,0,2.36,1.51,8.13,8.13,0,0,0,3.06.54,7.66,7.66,0,0,0,3.3-.7,11.42,11.42,0,0,0,2.7-1.73l1.48,2.12a12.51,12.51,0,0,1-3.6,2.23A10.66,10.66,0,0,1,87.43,57.71Z"/>
        <path d="M101.83,57.23V28.74h3.28V48h.16l10.48-10.24h3.76l-7.76,7.65,8.8,11.8h-3.68l-7.16-9.8-4.6,4.51v5.29Z"/>
        <path d="M134.79,57.71a12,12,0,0,1-4.1-.69,9.36,9.36,0,0,1-5.56-5.21,11,11,0,0,1-.82-4.34,10.58,10.58,0,0,1,.82-4.24,9.8,9.8,0,0,1,2.2-3.21,9.56,9.56,0,0,1,3.16-2,10.1,10.1,0,0,1,3.74-.7A9.82,9.82,0,0,1,138,38a7.57,7.57,0,0,1,2.8,1.85,8.19,8.19,0,0,1,1.74,2.89,10.91,10.91,0,0,1,.6,3.72c0,.37,0,.73,0,1.08a5.88,5.88,0,0,1-.12.92H127.63a6.85,6.85,0,0,0,2.42,5,8,8,0,0,0,5.14,1.66,9.31,9.31,0,0,0,3.18-.5,13.58,13.58,0,0,0,2.74-1.33l1.2,2.16A15.86,15.86,0,0,1,139,57,12,12,0,0,1,134.79,57.71Zm-.48-17.81a6.64,6.64,0,0,0-2.3.41,6.13,6.13,0,0,0-3.46,3,8.14,8.14,0,0,0-.84,2.55h12.4a6.52,6.52,0,0,0-1.74-4.47A5.59,5.59,0,0,0,134.31,39.9Z"/>
        <path d="M151.43,57.23V37.78h2.72l.28,4.61h.12a11.55,11.55,0,0,1,3.74-3.72,9.25,9.25,0,0,1,4.94-1.36,10.43,10.43,0,0,1,2,.17,7.83,7.83,0,0,1,1.84.62l-.76,2.84a17.26,17.26,0,0,0-1.74-.51,8.43,8.43,0,0,0-1.86-.16,7.87,7.87,0,0,0-4.22,1.25,12.1,12.1,0,0,0-3.78,4.3V57.23Z"/>
        <path d="M199.43,57.23V37.78h2.72l.28,4.61h.12a11.55,11.55,0,0,1,3.74-3.72,9.25,9.25,0,0,1,4.94-1.36,10.43,10.43,0,0,1,2,.17,7.83,7.83,0,0,1,1.84.62l-.76,2.84a17.26,17.26,0,0,0-1.74-.51,8.5,8.5,0,0,0-1.86-.16,7.85,7.85,0,0,0-4.22,1.25,12,12,0,0,0-3.78,4.3V57.23Z"/>
        <path d="M227.43,57.71q-3.52,0-5.14-2a9.13,9.13,0,0,1-1.62-5.87V37.78H224V49.43a6.71,6.71,0,0,0,1,4.09,4.06,4.06,0,0,0,3.46,1.34,5.6,5.6,0,0,0,3-.85,14.64,14.64,0,0,0,3-2.74V37.78h3.28V57.23h-2.68l-.28-3.41h-.16a14.29,14.29,0,0,1-3.22,2.81A7.46,7.46,0,0,1,227.43,57.71Z"/>
        <path d="M245.31,57.23V37.78H248l.28,3.32h.16a15.35,15.35,0,0,1,3.28-2.71,7.56,7.56,0,0,1,4-1.08q3.48,0,5.1,2a9.1,9.1,0,0,1,1.62,5.86V57.23h-3.28V45.59a6.7,6.7,0,0,0-1-4.11,4.1,4.1,0,0,0-3.44-1.34,5.88,5.88,0,0,0-1.62.22,6.52,6.52,0,0,0-1.46.66,11.18,11.18,0,0,0-1.48,1.11,20.36,20.36,0,0,0-1.6,1.54V57.23Z"/>
        <path d="M293,45.27V42.78h17.2v2.49Z"/>
        <path d="M317,45.27V42.78h17.2v2.49Z"/>
        <path d="M343.43,57.23V37.78h2.72l.28,4.61h.12a11.55,11.55,0,0,1,3.74-3.72,9.25,9.25,0,0,1,4.94-1.36,10.43,10.43,0,0,1,2,.17,7.83,7.83,0,0,1,1.84.62l-.76,2.84a17.26,17.26,0,0,0-1.74-.51,8.5,8.5,0,0,0-1.86-.16,7.82,7.82,0,0,0-4.22,1.25,12,12,0,0,0-3.78,4.3V57.23Z"/>
        <path d="M363.91,57.23V37.78h2.64l.28,2.57h.08a7.77,7.77,0,0,1,1.76-2.21,4.07,4.07,0,0,1,2.68-.83q2.83,0,3.68,3.36a8.81,8.81,0,0,1,1.86-2.46,3.88,3.88,0,0,1,2.7-.9,3.72,3.72,0,0,1,3.18,1.54,7.4,7.4,0,0,1,1.14,4.46V57.23h-3.28V43.55c0-2.27-.7-3.41-2.08-3.41a2.08,2.08,0,0,0-1.68.75,11.94,11.94,0,0,0-1.44,2.25V57.23h-3V43.55a5.61,5.61,0,0,0-.46-2.54,1.61,1.61,0,0,0-1.54-.87,2.34,2.34,0,0,0-1.76.75,8.41,8.41,0,0,0-1.44,2.25V57.23Z"/>
        <path d="M413,45.27V42.78h17.2v2.49Z"/>
        <path d="M443.83,57.23l-8.2-19.45H439l4.48,11q.6,1.49,1.14,2.91c.36.94.71,1.88,1.06,2.82h.16l1-2.82c.33-.95.7-1.92,1.1-2.91l4.48-11h3.16l-8,19.45Z"/>
        <path d="M485,52.71l1.56-2.28a19.57,19.57,0,0,0,3.34,1.89,9.81,9.81,0,0,0,4.1.82,5.72,5.72,0,0,0,3.62-1,3.09,3.09,0,0,0,1.22-2.5,2.66,2.66,0,0,0-.94-2.07,10.08,10.08,0,0,0-2.34-1.46c-.94-.42-2-.83-3.06-1.24a17.21,17.21,0,0,1-3.06-1.42,8.37,8.37,0,0,1-2.34-2,4.35,4.35,0,0,1-.94-2.89,5.25,5.25,0,0,1,1.78-4.12,8.08,8.08,0,0,1,4.7-1.92V27.31H495v5.24a8.91,8.91,0,0,1,3.68,1,12.82,12.82,0,0,1,2.68,2l-1.76,1.92c-.46-.35-.89-.66-1.3-.95a8.66,8.66,0,0,0-1.3-.71,6.39,6.39,0,0,0-1.48-.46,9.06,9.06,0,0,0-1.8-.16,5.11,5.11,0,0,0-3.22.9,2.87,2.87,0,0,0-1.18,2.42,2.23,2.23,0,0,0,.94,1.84,11,11,0,0,0,2.36,1.32c.94.39,2,.8,3.06,1.19a18.72,18.72,0,0,1,3.06,1.45,8.35,8.35,0,0,1,2.36,2,4.79,4.79,0,0,1,.94,3,5.77,5.77,0,0,1-.5,2.38,5.85,5.85,0,0,1-1.44,1.92,8.42,8.42,0,0,1-2.24,1.36,10.24,10.24,0,0,1-2.86.69v5.85h-2.4V55.82a13.17,13.17,0,0,1-4.24-1.08A14,14,0,0,1,485,52.71Z"/>
        <path d="M509.67,57.23V31h7.92a18,18,0,0,1,4,.41,8.6,8.6,0,0,1,3.08,1.29,6.07,6.07,0,0,1,2,2.38,8.64,8.64,0,0,1,.7,3.65,8.69,8.69,0,0,1-.7,3.6,6.66,6.66,0,0,1-2,2.51,8.94,8.94,0,0,1-3.08,1.5,14.31,14.31,0,0,1-3.94.5H513V57.23ZM513,44.1h4.2a8.27,8.27,0,0,0,5.12-1.29,4.94,4.94,0,0,0,1.64-4.1c0-1.9-.56-3.21-1.68-3.94a9.35,9.35,0,0,0-5.08-1.1H513Z"/>
        <path d="M534,57.23l-4-26.29h3.76l1.92,16.49c.05.55.1,1.06.16,1.51s.1.92.14,1.38.08,1,.12,1.46.07,1.08.1,1.73h.12c.1-.65.21-1.22.32-1.73s.2-1,.3-1.46.19-.92.3-1.38.22-.94.36-1.47l2.56-9.76h3.2l2.48,9.76.36,1.47.3,1.38c.09.47.18,1,.28,1.46s.2,1.08.34,1.73h.16c0-.65.06-1.22.1-1.73s.08-1,.12-1.46l.12-1.38c0-.45.08-.94.14-1.47l1.84-16.53h3.6l-3.84,26.29h-4.16l-2.56-10.56c-.22-.81-.4-1.59-.54-2.36s-.29-1.57-.42-2.37h-.12c-.14.8-.27,1.59-.4,2.37s-.31,1.55-.52,2.36l-2.56,10.56Z"/>
        <path d="M557.07,57.23V31h6.48q6,0,9.06,3.37t3.1,9.63q0,6.29-3.1,9.76t-8.9,3.49Zm3.32-2.72h2.92q4.52,0,6.74-2.77c1.48-1.84,2.22-4.42,2.22-7.76s-.74-5.88-2.22-7.63-3.73-2.64-6.74-2.64h-2.92Z"/>
        <path d="M589.59,43.39a3.16,3.16,0,0,1-2.3-.92,3.27,3.27,0,0,1-.94-2.45,3.32,3.32,0,0,1,.94-2.46,3.13,3.13,0,0,1,2.3-.93,3.16,3.16,0,0,1,2.3.93,3.36,3.36,0,0,1,.94,2.46,3.31,3.31,0,0,1-.94,2.45A3.19,3.19,0,0,1,589.59,43.39Zm0,14.32a3.13,3.13,0,0,1-2.3-.93,3.22,3.22,0,0,1-.94-2.43,3.29,3.29,0,0,1,.94-2.46,3.11,3.11,0,0,1,2.3-1,3.14,3.14,0,0,1,2.3,1,3.33,3.33,0,0,1,.94,2.46,3.26,3.26,0,0,1-.94,2.43A3.16,3.16,0,0,1,589.59,57.71Z"/>
        <path d="M605.54,63.63l13.12-34.81h3L608.5,63.63Z"/>
        <path d="M641.34,57.71a9.72,9.72,0,0,1-3.56-.58,5.77,5.77,0,0,1-2.32-1.65,6.52,6.52,0,0,1-1.26-2.54,13.28,13.28,0,0,1-.38-3.27v-9.2h-5.48V38l5.6-.2.44-6.23h2.72v6.23h9.56v2.69H637.1v9.24a9.79,9.79,0,0,0,.24,2.3,4.21,4.21,0,0,0,.8,1.66,3.37,3.37,0,0,0,1.52,1A7.05,7.05,0,0,0,642,55a12,12,0,0,0,2.52-.24,12.83,12.83,0,0,0,2.16-.64l.72,2.41a24.45,24.45,0,0,1-2.78.81A14.34,14.34,0,0,1,641.34,57.71Z"/>
        <path d="M651.9,57.23V37.78h2.64l.28,2.57h.08a8.13,8.13,0,0,1,1.76-2.21,4.09,4.09,0,0,1,2.68-.83c1.9,0,3.12,1.12,3.68,3.36a8.81,8.81,0,0,1,1.86-2.46,3.88,3.88,0,0,1,2.7-.9,3.72,3.72,0,0,1,3.18,1.54,7.4,7.4,0,0,1,1.14,4.46V57.23h-3.28V43.55c0-2.27-.69-3.41-2.08-3.41a2.11,2.11,0,0,0-1.68.75,13,13,0,0,0-1.44,2.25V57.23h-3V43.55a5.48,5.48,0,0,0-.46-2.54,1.6,1.6,0,0,0-1.54-.87,2.35,2.35,0,0,0-1.76.75,8.41,8.41,0,0,0-1.44,2.25V57.23Z"/>
        <path d="M677.3,65.43V37.78H680l.28,2.49h.12a12.33,12.33,0,0,1,3.14-2.13,8.46,8.46,0,0,1,3.58-.83,8,8,0,0,1,3.46.7,6.73,6.73,0,0,1,2.52,2,8.77,8.77,0,0,1,1.54,3.12,14.78,14.78,0,0,1,.52,4.1,12.59,12.59,0,0,1-.72,4.41,9.93,9.93,0,0,1-1.94,3.3A8.12,8.12,0,0,1,689.7,57a8.36,8.36,0,0,1-3.36.7,7.91,7.91,0,0,1-2.94-.66,9.88,9.88,0,0,1-2.86-1.87h-.12l.16,3.68v6.57Zm8.48-10.49a5.31,5.31,0,0,0,4.32-2,8.65,8.65,0,0,0,1.68-5.67,12,12,0,0,0-.32-2.92,6.48,6.48,0,0,0-1-2.26,4.37,4.37,0,0,0-1.7-1.46,5.44,5.44,0,0,0-2.48-.53,6.38,6.38,0,0,0-2.74.71,11.15,11.15,0,0,0-3,2.21v9.69a9.33,9.33,0,0,0,2.8,1.76A7.29,7.29,0,0,0,685.78,54.94Z"/>
        <path d="M733.42,66.18a12.91,12.91,0,0,1-6.62-1.4,4.41,4.41,0,0,1-2.34-4,3.84,3.84,0,0,1,.82-2.27,7.75,7.75,0,0,1,2.38-2v-.16a4.72,4.72,0,0,1-1.4-1.21,3.12,3.12,0,0,1-.6-2,3.61,3.61,0,0,1,.6-1.89A5.69,5.69,0,0,1,728,49.47v-.16a6.48,6.48,0,0,1-1.7-2,6.17,6.17,0,0,1-.7-3,6.55,6.55,0,0,1,.62-2.88,6.79,6.79,0,0,1,1.66-2.18,7.46,7.46,0,0,1,2.42-1.4,9,9,0,0,1,5.82,0h8v2.69h-5a5.72,5.72,0,0,1,1.16,1.71,5.23,5.23,0,0,1,.48,2.21,6.42,6.42,0,0,1-.58,2.79,5.94,5.94,0,0,1-1.6,2.1,7,7,0,0,1-2.4,1.32,9.15,9.15,0,0,1-2.94.46,8,8,0,0,1-1.62-.17,8.25,8.25,0,0,1-1.66-.54,2.69,2.69,0,0,0-1.52,2.24,1.78,1.78,0,0,0,1.06,1.69,6.69,6.69,0,0,0,3,.54h4.36a11.63,11.63,0,0,1,5.58,1,3.73,3.73,0,0,1,1.82,3.53,4.84,4.84,0,0,1-.76,2.59,6.74,6.74,0,0,1-2.16,2.16,12,12,0,0,1-3.4,1.49A16.71,16.71,0,0,1,733.42,66.18Zm.24-2.4a13.47,13.47,0,0,0,3-.31A8.71,8.71,0,0,0,739,62.6a4.33,4.33,0,0,0,1.46-1.24,2.41,2.41,0,0,0,.5-1.46,1.85,1.85,0,0,0-1.1-1.88,9,9,0,0,0-3.34-.47h-3.8c-.56,0-1.08,0-1.58-.07a6.62,6.62,0,0,1-1.38-.25,5.23,5.23,0,0,0-1.94,1.58,3,3,0,0,0-.54,1.66,2.72,2.72,0,0,0,1.62,2.42A10.1,10.1,0,0,0,733.66,63.78Zm-.44-14.92a4.34,4.34,0,0,0,4.48-4.59A4.64,4.64,0,0,0,736.38,41a4.32,4.32,0,0,0-1.42-.93,4.39,4.39,0,0,0-1.74-.34A4.51,4.51,0,0,0,730.06,41a4.64,4.64,0,0,0-1.32,3.29,4.4,4.4,0,0,0,1.32,3.36A4.49,4.49,0,0,0,733.22,48.86Z"/>
        <path d="M749.3,57.23V28.74h3.28v7.77l-.2,4.59h.12a15.76,15.76,0,0,1,3.26-2.71,7.46,7.46,0,0,1,4-1.08q3.48,0,5.1,2a9.1,9.1,0,0,1,1.62,5.86V57.23h-3.28V45.59a6.63,6.63,0,0,0-1-4.11,4.1,4.1,0,0,0-3.44-1.34,6,6,0,0,0-1.62.22,6.52,6.52,0,0,0-1.46.66,11.18,11.18,0,0,0-1.48,1.11c-.5.43-1,.95-1.6,1.54V57.23Z"/>
        <path d="M783.42,57.71A12.54,12.54,0,0,1,779.2,57a9.9,9.9,0,0,1-3.38-2,9.06,9.06,0,0,1-2.24-3.2,11.1,11.1,0,0,1-.8-4.3,10.44,10.44,0,0,1,.86-4.34A9.7,9.7,0,0,1,776,40a10.17,10.17,0,0,1,3.46-2,12.89,12.89,0,0,1,4.18-.67,9.58,9.58,0,0,1,4.14.83,11.51,11.51,0,0,1,2.94,2l-1.64,2.13a10.06,10.06,0,0,0-2.5-1.64,6.61,6.61,0,0,0-2.82-.61,8.74,8.74,0,0,0-3.08.54,6.94,6.94,0,0,0-2.38,1.54,7.46,7.46,0,0,0-1.54,2.38,8.76,8.76,0,0,0,0,6.11,7,7,0,0,0,1.52,2.34,6.73,6.73,0,0,0,2.36,1.51,8.13,8.13,0,0,0,3.06.54,7.66,7.66,0,0,0,3.3-.7,11.42,11.42,0,0,0,2.7-1.73l1.48,2.12a12.51,12.51,0,0,1-3.6,2.23A10.66,10.66,0,0,1,783.42,57.71Z"/>
        <path d="M799.42,57.23V37.78h2.72l.28,4.61h.12a11.65,11.65,0,0,1,3.74-3.72,9.25,9.25,0,0,1,4.94-1.36,10.43,10.43,0,0,1,2,.17,7.68,7.68,0,0,1,1.84.62l-.76,2.84a17.26,17.26,0,0,0-1.74-.51,8.37,8.37,0,0,0-1.86-.16,7.87,7.87,0,0,0-4.22,1.25,12.2,12.2,0,0,0-3.78,4.3V57.23Z"/>
        <path d="M829.58,57.71a3.15,3.15,0,0,1-2.3-.93,3.22,3.22,0,0,1-.94-2.43,3.29,3.29,0,0,1,.94-2.46,3.26,3.26,0,0,1,4.6,0,3.29,3.29,0,0,1,.94,2.46,3.22,3.22,0,0,1-.94,2.43A3.15,3.15,0,0,1,829.58,57.71Z"/>
        <path d="M854.22,57.23V40.47h-9V37.78H857.5V57.23Zm1.28-23.52a2.7,2.7,0,0,1-1.88-.7,2.67,2.67,0,0,1,0-3.73,2.91,2.91,0,0,1,3.76,0,2.67,2.67,0,0,1,0,3.73A2.7,2.7,0,0,1,855.5,33.71Z"/>
        <path d="M877.58,57.71a9.84,9.84,0,0,1-3.66-.69,9,9,0,0,1-3.06-2,9.57,9.57,0,0,1-2.1-3.2,12.35,12.35,0,0,1,0-8.64,9.71,9.71,0,0,1,2.1-3.23,8.92,8.92,0,0,1,3.06-2,10.33,10.33,0,0,1,7.32,0,8.92,8.92,0,0,1,3.06,2,9.71,9.71,0,0,1,2.1,3.23,12.35,12.35,0,0,1,0,8.64,9.57,9.57,0,0,1-2.1,3.2,9,9,0,0,1-3.06,2A9.84,9.84,0,0,1,877.58,57.71Zm0-2.73a5.73,5.73,0,0,0,2.54-.54,5.65,5.65,0,0,0,2-1.51,6.93,6.93,0,0,0,1.26-2.34,10,10,0,0,0,.44-3,10.21,10.21,0,0,0-.44-3.07,7,7,0,0,0-1.26-2.38,5.86,5.86,0,0,0-2-1.54,6.24,6.24,0,0,0-5.08,0,5.86,5.86,0,0,0-2,1.54,7,7,0,0,0-1.26,2.38,10.21,10.21,0,0,0-.44,3.07,10,10,0,0,0,.44,3,6.93,6.93,0,0,0,1.26,2.34,5.65,5.65,0,0,0,2,1.51A5.73,5.73,0,0,0,877.58,55Z"/>
        <path d="M893.54,63.63l13.12-34.81h3L896.5,63.63Z"/>
        <path d="M924.42,57.71A8.38,8.38,0,0,1,921,57a7.45,7.45,0,0,1-2.66-2,9,9,0,0,1-1.72-3.19,14.16,14.16,0,0,1-.6-4.31,11.77,11.77,0,0,1,.74-4.27,10.14,10.14,0,0,1,2-3.22,8.71,8.71,0,0,1,2.82-2,8.16,8.16,0,0,1,3.32-.71A7.06,7.06,0,0,1,928,38a10.23,10.23,0,0,1,2.66,1.85h.12l-.16-3.59V28.74h3.28V57.23h-2.72l-.28-2.56h-.12a11.81,11.81,0,0,1-2.86,2.14A7.29,7.29,0,0,1,924.42,57.71Zm.68-2.77q2.88,0,5.48-2.92V42.35A8.53,8.53,0,0,0,928,40.59a6.57,6.57,0,0,0-2.54-.53,5.33,5.33,0,0,0-2.38.54,6,6,0,0,0-1.92,1.53,7.35,7.35,0,0,0-1.3,2.34,9.06,9.06,0,0,0-.48,3,8.81,8.81,0,0,0,1.5,5.47A5,5,0,0,0,925.1,54.94Z"/>
        <path d="M950.78,57.71a11.92,11.92,0,0,1-4.1-.69,9.36,9.36,0,0,1-5.56-5.21,10.84,10.84,0,0,1-.82-4.34,10.41,10.41,0,0,1,.82-4.24,9.8,9.8,0,0,1,2.2-3.21,9.46,9.46,0,0,1,3.16-2,10.06,10.06,0,0,1,3.74-.7A9.85,9.85,0,0,1,954,38a7.57,7.57,0,0,1,2.8,1.85,8.19,8.19,0,0,1,1.74,2.89,10.91,10.91,0,0,1,.6,3.72c0,.37,0,.73,0,1.08s-.07.65-.12.92H943.62a6.81,6.81,0,0,0,2.42,5,8,8,0,0,0,5.14,1.66,9.39,9.39,0,0,0,3.18-.5,13.58,13.58,0,0,0,2.74-1.33l1.2,2.16A15.86,15.86,0,0,1,955,57,12.09,12.09,0,0,1,950.78,57.71ZM950.3,39.9a6.59,6.59,0,0,0-2.3.41,6.49,6.49,0,0,0-2,1.13,6.29,6.29,0,0,0-1.48,1.87,8.14,8.14,0,0,0-.84,2.55h12.4a6.52,6.52,0,0,0-1.74-4.47A5.61,5.61,0,0,0,950.3,39.9Z"/>
        <path d="M973.42,66.18a12.91,12.91,0,0,1-6.62-1.4,4.41,4.41,0,0,1-2.34-4,3.77,3.77,0,0,1,.82-2.27,7.75,7.75,0,0,1,2.38-2v-.16a4.72,4.72,0,0,1-1.4-1.21,3.12,3.12,0,0,1-.6-2,3.61,3.61,0,0,1,.6-1.89A5.58,5.58,0,0,1,968,49.47v-.16a6.35,6.35,0,0,1-1.7-2,6.06,6.06,0,0,1-.7-3,6.55,6.55,0,0,1,.62-2.88,6.65,6.65,0,0,1,1.66-2.18,7.35,7.35,0,0,1,2.42-1.4,9,9,0,0,1,5.82,0h8v2.69h-5a5.91,5.91,0,0,1,1.16,1.71,5.23,5.23,0,0,1,.48,2.21,6.42,6.42,0,0,1-.58,2.79,6.06,6.06,0,0,1-1.6,2.1,7,7,0,0,1-2.4,1.32,9.15,9.15,0,0,1-2.94.46,7.83,7.83,0,0,1-1.62-.17,8.05,8.05,0,0,1-1.66-.54,2.69,2.69,0,0,0-1.52,2.24,1.76,1.76,0,0,0,1.06,1.69,6.69,6.69,0,0,0,3,.54h4.36a11.63,11.63,0,0,1,5.58,1,3.74,3.74,0,0,1,1.82,3.53,4.84,4.84,0,0,1-.76,2.59,7,7,0,0,1-2.16,2.16,12.11,12.11,0,0,1-3.4,1.49A16.76,16.76,0,0,1,973.42,66.18Zm.24-2.4a13.53,13.53,0,0,0,3-.31A8.71,8.71,0,0,0,979,62.6a4.33,4.33,0,0,0,1.46-1.24,2.48,2.48,0,0,0,.5-1.46,1.87,1.87,0,0,0-1.1-1.88,9,9,0,0,0-3.34-.47h-3.8c-.56,0-1.09,0-1.58-.07a6.62,6.62,0,0,1-1.38-.25,5.23,5.23,0,0,0-1.94,1.58,3,3,0,0,0-.54,1.66,2.72,2.72,0,0,0,1.62,2.42A10.1,10.1,0,0,0,973.66,63.78Zm-.44-14.92a4.34,4.34,0,0,0,4.48-4.59A4.64,4.64,0,0,0,976.38,41a4.32,4.32,0,0,0-1.42-.93,4.62,4.62,0,0,0-3.48,0,4.32,4.32,0,0,0-1.42.93,4.64,4.64,0,0,0-1.32,3.29,4.4,4.4,0,0,0,1.32,3.36A4.47,4.47,0,0,0,973.22,48.86Z"/>
        <path d="M995.42,57.71a8.22,8.22,0,0,1-2.56-.39,6.52,6.52,0,0,1-2.1-1.08,5,5,0,0,1-1.42-1.72,5,5,0,0,1-.52-2.34,5.22,5.22,0,0,1,.78-2.86,6.17,6.17,0,0,1,2.48-2.09,17.38,17.38,0,0,1,4.38-1.45,56.58,56.58,0,0,1,6.44-.88,7.18,7.18,0,0,0-.32-1.88,4,4,0,0,0-2.46-2.59,6.23,6.23,0,0,0-2.38-.41,9.28,9.28,0,0,0-3.68.75,21.59,21.59,0,0,0-3.12,1.58l-1.28-2.25a19.18,19.18,0,0,1,3.78-1.87,17.33,17.33,0,0,1,2.34-.67,12.45,12.45,0,0,1,2.52-.25c2.67,0,4.64.72,5.94,2.17a8.48,8.48,0,0,1,1.94,5.83V57.23h-2.68l-.28-2.64h-.12a18.75,18.75,0,0,1-3.62,2.19A9.44,9.44,0,0,1,995.42,57.71Zm.88-2.65a7.77,7.77,0,0,0,3.3-.74,14.52,14.52,0,0,0,3.3-2.14V47.06a44.3,44.3,0,0,0-5.22.68,14.47,14.47,0,0,0-3.36,1.07,4.33,4.33,0,0,0-1.78,1.4,3,3,0,0,0-.52,1.73,2.6,2.6,0,0,0,.36,1.42,3,3,0,0,0,.94,1,4,4,0,0,0,1.36.57A7.18,7.18,0,0,0,996.3,55.06Z"/>
        <path d="M1019.42,57.71q-3.52,0-5.14-2a9.13,9.13,0,0,1-1.62-5.87V37.78H1016V49.43a6.71,6.71,0,0,0,1,4.09,4.06,4.06,0,0,0,3.46,1.34,5.6,5.6,0,0,0,3-.85,15.17,15.17,0,0,0,3-2.74V37.78h3.28V57.23h-2.68l-.28-3.41h-.16a14.29,14.29,0,0,1-3.22,2.81A7.46,7.46,0,0,1,1019.42,57.71Z"/>
        <path d="M1046,57.71a15.47,15.47,0,0,1-5.32-.9,19.31,19.31,0,0,1-4.24-2.14l1.52-2.16a15.27,15.27,0,0,0,3.7,1.92,14.33,14.33,0,0,0,4.74.71,6.15,6.15,0,0,0,3.7-.9,2.62,2.62,0,0,0,1.22-2.14,2.79,2.79,0,0,0-.2-1,2.22,2.22,0,0,0-.86-.92,7.87,7.87,0,0,0-1.86-.83,26.45,26.45,0,0,0-3.16-.8,15.64,15.64,0,0,1-5.7-2.15,4.12,4.12,0,0,1-1.9-3.54,4.7,4.7,0,0,1,.52-2.18,4.91,4.91,0,0,1,1.54-1.75,7.73,7.73,0,0,1,2.52-1.16,13.73,13.73,0,0,1,7.82.32,15.19,15.19,0,0,1,3.52,1.73l-1.6,2.12a12.68,12.68,0,0,0-3-1.47,10.65,10.65,0,0,0-3.52-.57,5.44,5.44,0,0,0-3.48.85,2.49,2.49,0,0,0-1,2,2.07,2.07,0,0,0,1.32,1.93,18.77,18.77,0,0,0,4.32,1.3,29.41,29.41,0,0,1,4,1.11,8.51,8.51,0,0,1,2.46,1.3,3.83,3.83,0,0,1,1.24,1.59,5.7,5.7,0,0,1,.34,2,4.65,4.65,0,0,1-.56,2.24A5.44,5.44,0,0,1,1052.4,56a8.35,8.35,0,0,1-2.72,1.26A13.46,13.46,0,0,1,1046,57.71Z"/>
        <path d="M1070,57.71a15.47,15.47,0,0,1-5.32-.9,19.31,19.31,0,0,1-4.24-2.14l1.52-2.16a15.27,15.27,0,0,0,3.7,1.92,14.33,14.33,0,0,0,4.74.71,6.18,6.18,0,0,0,3.7-.9,2.62,2.62,0,0,0,1.22-2.14,2.79,2.79,0,0,0-.2-1,2.29,2.29,0,0,0-.86-.92,7.87,7.87,0,0,0-1.86-.83,26.45,26.45,0,0,0-3.16-.8,15.57,15.57,0,0,1-5.7-2.15,4.12,4.12,0,0,1-1.9-3.54,4.7,4.7,0,0,1,.52-2.18,4.91,4.91,0,0,1,1.54-1.75,7.73,7.73,0,0,1,2.52-1.16,13.73,13.73,0,0,1,7.82.32,15.19,15.19,0,0,1,3.52,1.73l-1.6,2.12a12.68,12.68,0,0,0-3-1.47,10.69,10.69,0,0,0-3.52-.57,5.4,5.4,0,0,0-3.48.85,2.49,2.49,0,0,0-1,2,2.07,2.07,0,0,0,1.32,1.93,18.77,18.77,0,0,0,4.32,1.3,29.41,29.41,0,0,1,4,1.11,8.51,8.51,0,0,1,2.46,1.3,3.83,3.83,0,0,1,1.24,1.59,5.7,5.7,0,0,1,.34,2,4.65,4.65,0,0,1-.56,2.24A5.54,5.54,0,0,1,1076.4,56a8.35,8.35,0,0,1-2.72,1.26A13.46,13.46,0,0,1,1070,57.71Z"/>
        <path d="M1085,45.27V42.78h17.2v2.49Z"/>
        <path d="M1117.58,57.71a9.84,9.84,0,0,1-3.66-.69,9,9,0,0,1-3.06-2,9.57,9.57,0,0,1-2.1-3.2,12.35,12.35,0,0,1,0-8.64,9.71,9.71,0,0,1,2.1-3.23,8.92,8.92,0,0,1,3.06-2,10.33,10.33,0,0,1,7.32,0,8.92,8.92,0,0,1,3.06,2,9.71,9.71,0,0,1,2.1,3.23,12.35,12.35,0,0,1,0,8.64,9.57,9.57,0,0,1-2.1,3.2,9,9,0,0,1-3.06,2A9.84,9.84,0,0,1,1117.58,57.71Zm0-2.73a5.73,5.73,0,0,0,2.54-.54,5.65,5.65,0,0,0,2-1.51,7.3,7.3,0,0,0,1.26-2.34,10,10,0,0,0,.44-3,10.21,10.21,0,0,0-.44-3.07,7.4,7.4,0,0,0-1.26-2.38,5.86,5.86,0,0,0-2-1.54,6.24,6.24,0,0,0-5.08,0,5.76,5.76,0,0,0-2,1.54,7,7,0,0,0-1.26,2.38,9.9,9.9,0,0,0-.44,3.07,9.66,9.66,0,0,0,.44,3,6.93,6.93,0,0,0,1.26,2.34,5.56,5.56,0,0,0,2,1.51A5.7,5.7,0,0,0,1117.58,55Z"/>
        <path d="M1135.42,57.23V37.78h2.72l.28,4.61h.12a11.55,11.55,0,0,1,3.74-3.72,9.22,9.22,0,0,1,4.94-1.36,10.5,10.5,0,0,1,2,.17,8,8,0,0,1,1.84.62l-.76,2.84c-.7-.23-1.28-.41-1.74-.51a8.5,8.5,0,0,0-1.86-.16,7.82,7.82,0,0,0-4.22,1.25,12,12,0,0,0-3.78,4.3V57.23Z"/>
        <path d="M1165.42,66.18a12.89,12.89,0,0,1-6.62-1.4,4.41,4.41,0,0,1-2.34-4,3.77,3.77,0,0,1,.82-2.27,7.63,7.63,0,0,1,2.38-2v-.16a4.6,4.6,0,0,1-1.4-1.21,3.12,3.12,0,0,1-.6-2,3.61,3.61,0,0,1,.6-1.89,5.58,5.58,0,0,1,1.72-1.74v-.16a6.22,6.22,0,0,1-1.7-2,6.06,6.06,0,0,1-.7-3,6.41,6.41,0,0,1,.62-2.88,6.52,6.52,0,0,1,1.66-2.18,7.35,7.35,0,0,1,2.42-1.4,9,9,0,0,1,5.82,0h8v2.69h-5a5.91,5.91,0,0,1,1.16,1.71,5.23,5.23,0,0,1,.48,2.21,6.56,6.56,0,0,1-.58,2.79,6.06,6.06,0,0,1-1.6,2.1,7,7,0,0,1-2.4,1.32,9.15,9.15,0,0,1-2.94.46,8.05,8.05,0,0,1-3.28-.71,2.67,2.67,0,0,0-1.52,2.24,1.76,1.76,0,0,0,1.06,1.69,6.66,6.66,0,0,0,3,.54h4.36a11.68,11.68,0,0,1,5.58,1,3.74,3.74,0,0,1,1.82,3.53,4.93,4.93,0,0,1-.76,2.59,7,7,0,0,1-2.16,2.16,12.24,12.24,0,0,1-3.4,1.49A16.81,16.81,0,0,1,1165.42,66.18Zm.24-2.4a13.53,13.53,0,0,0,3-.31,8.84,8.84,0,0,0,2.32-.87,4.43,4.43,0,0,0,1.46-1.24,2.48,2.48,0,0,0,.5-1.46,1.87,1.87,0,0,0-1.1-1.88,9.07,9.07,0,0,0-3.34-.47h-3.8c-.56,0-1.09,0-1.58-.07a6.39,6.39,0,0,1-1.38-.25,5.15,5.15,0,0,0-1.94,1.58,3,3,0,0,0-.54,1.66,2.72,2.72,0,0,0,1.62,2.42A10.1,10.1,0,0,0,1165.66,63.78Zm-.44-14.92a4.34,4.34,0,0,0,4.48-4.59,4.64,4.64,0,0,0-1.32-3.29,4.58,4.58,0,0,0-4.9-.93,4.32,4.32,0,0,0-1.42.93,4.64,4.64,0,0,0-1.32,3.29,4.4,4.4,0,0,0,1.32,3.36A4.47,4.47,0,0,0,1165.22,48.86Z"/>
        <path d="M1181.54,63.63l13.12-34.81h3L1184.5,63.63Z"/>
        <path d="M1213.42,66.18a12.89,12.89,0,0,1-6.62-1.4,4.41,4.41,0,0,1-2.34-4,3.77,3.77,0,0,1,.82-2.27,7.63,7.63,0,0,1,2.38-2v-.16a4.6,4.6,0,0,1-1.4-1.21,3.12,3.12,0,0,1-.6-2,3.61,3.61,0,0,1,.6-1.89,5.58,5.58,0,0,1,1.72-1.74v-.16a6.22,6.22,0,0,1-1.7-2,6.06,6.06,0,0,1-.7-3,6.41,6.41,0,0,1,.62-2.88,6.52,6.52,0,0,1,1.66-2.18,7.35,7.35,0,0,1,2.42-1.4,9,9,0,0,1,5.82,0h8v2.69h-5a5.91,5.91,0,0,1,1.16,1.71,5.23,5.23,0,0,1,.48,2.21,6.56,6.56,0,0,1-.58,2.79,6.06,6.06,0,0,1-1.6,2.1,7,7,0,0,1-2.4,1.32,9.15,9.15,0,0,1-2.94.46,8.05,8.05,0,0,1-3.28-.71,2.67,2.67,0,0,0-1.52,2.24,1.76,1.76,0,0,0,1.06,1.69,6.66,6.66,0,0,0,3,.54h4.36a11.68,11.68,0,0,1,5.58,1,3.74,3.74,0,0,1,1.82,3.53,4.93,4.93,0,0,1-.76,2.59,7,7,0,0,1-2.16,2.16,12.24,12.24,0,0,1-3.4,1.49A16.81,16.81,0,0,1,1213.42,66.18Zm.24-2.4a13.53,13.53,0,0,0,3-.31,8.84,8.84,0,0,0,2.32-.87,4.43,4.43,0,0,0,1.46-1.24,2.48,2.48,0,0,0,.5-1.46,1.87,1.87,0,0,0-1.1-1.88,9.07,9.07,0,0,0-3.34-.47h-3.8c-.56,0-1.09,0-1.58-.07a6.39,6.39,0,0,1-1.38-.25,5.15,5.15,0,0,0-1.94,1.58,3,3,0,0,0-.54,1.66,2.72,2.72,0,0,0,1.62,2.42A10.1,10.1,0,0,0,1213.66,63.78Zm-.44-14.92a4.34,4.34,0,0,0,4.48-4.59,4.64,4.64,0,0,0-1.32-3.29,4.58,4.58,0,0,0-4.9-.93,4.32,4.32,0,0,0-1.42.93,4.64,4.64,0,0,0-1.32,3.29,4.4,4.4,0,0,0,1.32,3.36A4.47,4.47,0,0,0,1213.22,48.86Z"/>
        <path d="M1238.78,57.71a11.88,11.88,0,0,1-4.1-.69,9.36,9.36,0,0,1-5.56-5.21,10.84,10.84,0,0,1-.82-4.34,10.41,10.41,0,0,1,.82-4.24,9.65,9.65,0,0,1,2.2-3.21,9.46,9.46,0,0,1,3.16-2,10,10,0,0,1,3.74-.7A9.89,9.89,0,0,1,1242,38a7.66,7.66,0,0,1,2.8,1.85,8.19,8.19,0,0,1,1.74,2.89,10.91,10.91,0,0,1,.6,3.72c0,.37,0,.73,0,1.08s-.07.65-.12.92h-15.32a6.81,6.81,0,0,0,2.42,5,8,8,0,0,0,5.14,1.66,9.39,9.39,0,0,0,3.18-.5,13.84,13.84,0,0,0,2.74-1.33l1.2,2.16A15.86,15.86,0,0,1,1243,57,12.09,12.09,0,0,1,1238.78,57.71Zm-.48-17.81a6.59,6.59,0,0,0-2.3.41,6.13,6.13,0,0,0-3.46,3,8.14,8.14,0,0,0-.84,2.55h12.4a6.61,6.61,0,0,0-1.74-4.47A5.61,5.61,0,0,0,1238.3,39.9Z"/>
        <path d="M1261.57,57.71a9.84,9.84,0,0,1-3.66-.69,8.85,8.85,0,0,1-3.05-2,9.6,9.6,0,0,1-2.11-3.2,12.5,12.5,0,0,1,0-8.64,9.73,9.73,0,0,1,2.11-3.23,8.79,8.79,0,0,1,3.05-2,10.33,10.33,0,0,1,7.32,0,8.83,8.83,0,0,1,3.06,2,9.89,9.89,0,0,1,2.11,3.23,12.5,12.5,0,0,1,0,8.64,9.75,9.75,0,0,1-2.11,3.2,8.89,8.89,0,0,1-3.06,2A9.8,9.8,0,0,1,1261.57,57.71Zm0-2.73a5.67,5.67,0,0,0,2.54-.54,5.56,5.56,0,0,0,2-1.51,6.93,6.93,0,0,0,1.26-2.34,9.66,9.66,0,0,0,.44-3,9.9,9.9,0,0,0-.44-3.07,7,7,0,0,0-1.26-2.38,5.76,5.76,0,0,0-2-1.54,6,6,0,0,0-2.54-.54,6,6,0,0,0-2.54.54,5.86,5.86,0,0,0-2,1.54,7.4,7.4,0,0,0-1.26,2.38,10.21,10.21,0,0,0-.44,3.07,10,10,0,0,0,.44,3,7.3,7.3,0,0,0,1.26,2.34,5.65,5.65,0,0,0,2,1.51A5.73,5.73,0,0,0,1261.57,55Z"/>
        <path d="M1287.41,57.71a12.58,12.58,0,0,1-4.22-.69,9.9,9.9,0,0,1-3.38-2,9.19,9.19,0,0,1-2.24-3.2,11.1,11.1,0,0,1-.8-4.3,10.44,10.44,0,0,1,.86-4.34A9.58,9.58,0,0,1,1280,40a10,10,0,0,1,3.46-2,12.79,12.79,0,0,1,4.17-.67,9.58,9.58,0,0,1,4.14.83,11.34,11.34,0,0,1,2.94,2l-1.63,2.13a10.44,10.44,0,0,0-2.5-1.64,6.69,6.69,0,0,0-2.83-.61,8.74,8.74,0,0,0-3.08.54,6.94,6.94,0,0,0-2.38,1.54,7.46,7.46,0,0,0-1.54,2.38,8.18,8.18,0,0,0-.56,3.07,8.39,8.39,0,0,0,.54,3,7,7,0,0,0,1.52,2.34,6.73,6.73,0,0,0,2.36,1.51,8.17,8.17,0,0,0,3.06.54,7.63,7.63,0,0,0,3.3-.7,11.22,11.22,0,0,0,2.7-1.73l1.48,2.12a12.51,12.51,0,0,1-3.6,2.23A10.62,10.62,0,0,1,1287.41,57.71Z"/>
        <path d="M1309.57,57.71a9.84,9.84,0,0,1-3.66-.69,8.85,8.85,0,0,1-3.05-2,9.6,9.6,0,0,1-2.11-3.2,12.5,12.5,0,0,1,0-8.64,9.73,9.73,0,0,1,2.11-3.23,8.79,8.79,0,0,1,3.05-2,10.33,10.33,0,0,1,7.32,0,8.83,8.83,0,0,1,3.06,2,9.89,9.89,0,0,1,2.11,3.23,12.5,12.5,0,0,1,0,8.64,9.75,9.75,0,0,1-2.11,3.2,8.89,8.89,0,0,1-3.06,2A9.8,9.8,0,0,1,1309.57,57.71Zm0-2.73a5.67,5.67,0,0,0,2.54-.54,5.56,5.56,0,0,0,2-1.51,6.93,6.93,0,0,0,1.26-2.34,9.66,9.66,0,0,0,.44-3,9.9,9.9,0,0,0-.44-3.07,7,7,0,0,0-1.26-2.38,5.76,5.76,0,0,0-2-1.54,6,6,0,0,0-2.54-.54,6,6,0,0,0-2.54.54,5.86,5.86,0,0,0-2,1.54,7.4,7.4,0,0,0-1.26,2.38,10.21,10.21,0,0,0-.44,3.07,10,10,0,0,0,.44,3,7.3,7.3,0,0,0,1.26,2.34,5.65,5.65,0,0,0,2,1.51A5.73,5.73,0,0,0,1309.57,55Z"/>
        <path d="M1332.41,57.71A8.38,8.38,0,0,1,1329,57a7.54,7.54,0,0,1-2.66-2,9.12,9.12,0,0,1-1.72-3.19,14.16,14.16,0,0,1-.6-4.31,11.77,11.77,0,0,1,.74-4.27,10.32,10.32,0,0,1,2-3.22,8.93,8.93,0,0,1,2.82-2,8.19,8.19,0,0,1,3.32-.71A7,7,0,0,1,1336,38a10.23,10.23,0,0,1,2.66,1.85h.12l-.16-3.59V28.74h3.28V57.23h-2.72l-.28-2.56h-.12a11.81,11.81,0,0,1-2.86,2.14A7.26,7.26,0,0,1,1332.41,57.71Zm.68-2.77q2.88,0,5.48-2.92V42.35a8.53,8.53,0,0,0-2.58-1.76,6.54,6.54,0,0,0-2.54-.53,5.36,5.36,0,0,0-2.38.54,6,6,0,0,0-1.92,1.53,7.55,7.55,0,0,0-1.3,2.34,9.06,9.06,0,0,0-.48,3,8.81,8.81,0,0,0,1.5,5.47A5,5,0,0,0,1333.09,54.94Z"/>
        <path d="M1358.77,57.71a12,12,0,0,1-4.1-.69,9.36,9.36,0,0,1-5.56-5.21,11,11,0,0,1-.82-4.34,10.58,10.58,0,0,1,.82-4.24,9.8,9.8,0,0,1,2.2-3.21,9.56,9.56,0,0,1,3.16-2,10.1,10.1,0,0,1,3.74-.7A9.82,9.82,0,0,1,1362,38a7.57,7.57,0,0,1,2.8,1.85,8.19,8.19,0,0,1,1.74,2.89,10.91,10.91,0,0,1,.6,3.72c0,.37,0,.73,0,1.08a5.88,5.88,0,0,1-.12.92h-15.32a6.85,6.85,0,0,0,2.42,5,8,8,0,0,0,5.14,1.66,9.31,9.31,0,0,0,3.18-.5,13.58,13.58,0,0,0,2.74-1.33l1.2,2.16A15.86,15.86,0,0,1,1363,57,12,12,0,0,1,1358.77,57.71Zm-.48-17.81a6.64,6.64,0,0,0-2.3.41,6.13,6.13,0,0,0-3.46,3,8.14,8.14,0,0,0-.84,2.55h12.4a6.52,6.52,0,0,0-1.74-4.47A5.59,5.59,0,0,0,1358.29,39.9Z"/>
        <path d="M1375.41,57.23V37.78h2.72l.28,4.61h.12a11.65,11.65,0,0,1,3.74-3.72,9.25,9.25,0,0,1,4.94-1.36,10.43,10.43,0,0,1,2,.17,7.68,7.68,0,0,1,1.84.62l-.76,2.84a17.26,17.26,0,0,0-1.74-.51,8.37,8.37,0,0,0-1.86-.16,7.87,7.87,0,0,0-4.22,1.25,12.2,12.2,0,0,0-3.78,4.3V57.23Z"/>
        <path d="M1405.57,43.39a3.19,3.19,0,0,1-2.3-.92,3.31,3.31,0,0,1-.94-2.45,3.36,3.36,0,0,1,.94-2.46,3.16,3.16,0,0,1,2.3-.93,3.13,3.13,0,0,1,2.3.93,3.32,3.32,0,0,1,.94,2.46,3.27,3.27,0,0,1-.94,2.45A3.16,3.16,0,0,1,1405.57,43.39Zm0,14.32a3.16,3.16,0,0,1-2.3-.93,3.26,3.26,0,0,1-.94-2.43,3.33,3.33,0,0,1,.94-2.46,3.14,3.14,0,0,1,2.3-1,3.11,3.11,0,0,1,2.3,1,3.29,3.29,0,0,1,.94,2.46,3.22,3.22,0,0,1-.94,2.43A3.13,3.13,0,0,1,1405.57,57.71Z"/>
        <path d="M1429.05,57.71a12.49,12.49,0,0,1-5.56-1.11,13.46,13.46,0,0,1-3.64-2.5l1.68-2.16a13.7,13.7,0,0,0,3.06,2.12,9.11,9.11,0,0,0,4.26.92,8.22,8.22,0,0,0,2.44-.34,6.36,6.36,0,0,0,1.94-.93,4.19,4.19,0,0,0,1.28-1.47,4,4,0,0,0,.46-1.93,4.28,4.28,0,0,0-.5-2.07,4.24,4.24,0,0,0-1.62-1.61,8.56,8.56,0,0,0-2.88-1,21.71,21.71,0,0,0-4.28-.36V42.71a17.65,17.65,0,0,0,3.86-.36,8.42,8.42,0,0,0,2.58-1,4,4,0,0,0,1.46-1.53,3.93,3.93,0,0,0,.46-1.88,3.52,3.52,0,0,0-1.42-3,6.13,6.13,0,0,0-3.78-1.08,8.06,8.06,0,0,0-3.4.73,10.76,10.76,0,0,0-2.88,1.88l-1.76-2.08a14.05,14.05,0,0,1,3.64-2.3,10.93,10.93,0,0,1,4.52-.9,11.84,11.84,0,0,1,3.34.44,8.4,8.4,0,0,1,2.68,1.26,5.71,5.71,0,0,1,1.78,2,5.78,5.78,0,0,1,.64,2.77,5.06,5.06,0,0,1-1.52,3.8,10.09,10.09,0,0,1-3.92,2.27v.16a10.8,10.8,0,0,1,2.42.83,7.7,7.7,0,0,1,2,1.36,5.94,5.94,0,0,1,1.38,1.89,5.59,5.59,0,0,1,.5,2.41,6.4,6.4,0,0,1-.72,3,6.92,6.92,0,0,1-2,2.3,9.6,9.6,0,0,1-2.94,1.44A12.68,12.68,0,0,1,1429.05,57.71Z"/>
        <path d="M1453.57,57.71a3.15,3.15,0,0,1-2.3-.93,3.26,3.26,0,0,1-.94-2.43,3.33,3.33,0,0,1,.94-2.46,3.26,3.26,0,0,1,4.6,0,3.29,3.29,0,0,1,.94,2.46,3.22,3.22,0,0,1-.94,2.43A3.15,3.15,0,0,1,1453.57,57.71Z"/>
        <path d="M1477.57,57.71a7.79,7.79,0,0,1-6.72-3.47q-2.43-3.45-2.44-9.85t2.44-9.8a8.4,8.4,0,0,1,13.44,0q2.45,3.34,2.44,9.8t-2.44,9.85A7.78,7.78,0,0,1,1477.57,57.71Zm0-2.65a5.06,5.06,0,0,0,4.38-2.59q1.69-2.61,1.7-8.08a21.88,21.88,0,0,0-.44-4.75,10.21,10.21,0,0,0-1.26-3.28,5.21,5.21,0,0,0-1.94-1.89,5.19,5.19,0,0,0-4.88,0,5.28,5.28,0,0,0-1.94,1.89,10.7,10.7,0,0,0-1.26,3.28,22.52,22.52,0,0,0-.44,4.75q0,5.47,1.7,8.08A5.06,5.06,0,0,0,1477.57,55.06Zm0-8.28a2.46,2.46,0,0,1-1.74-.69,2.63,2.63,0,0,1-.74-2,2.53,2.53,0,0,1,.74-1.93,2.51,2.51,0,0,1,3.48,0,2.5,2.5,0,0,1,.74,1.93,2.59,2.59,0,0,1-.74,2A2.46,2.46,0,0,1,1477.57,46.78Z"/>
        <path d="M1501.57,57.71a3.15,3.15,0,0,1-2.3-.93,3.26,3.26,0,0,1-.94-2.43,3.33,3.33,0,0,1,.94-2.46,3.26,3.26,0,0,1,4.6,0,3.29,3.29,0,0,1,.94,2.46,3.22,3.22,0,0,1-.94,2.43A3.15,3.15,0,0,1,1501.57,57.71Z"/>
        <path d="M1516.49,57.23v-2q3.24-2.88,5.74-5.21a56.88,56.88,0,0,0,4.2-4.25,19.3,19.3,0,0,0,2.58-3.63,7,7,0,0,0,.88-3.28,4.92,4.92,0,0,0-1.36-3.59,5.61,5.61,0,0,0-4.2-1.41,6.52,6.52,0,0,0-3.34.91,12.7,12.7,0,0,0-2.78,2.17l-1.88-1.88a15.46,15.46,0,0,1,3.7-2.82,9.91,9.91,0,0,1,4.7-1.05,10.17,10.17,0,0,1,3.46.54,7.58,7.58,0,0,1,2.62,1.51,6.63,6.63,0,0,1,1.66,2.39,7.88,7.88,0,0,1,.58,3.07,8.45,8.45,0,0,1-.86,3.62,19,19,0,0,1-2.42,3.77,45.69,45.69,0,0,1-3.72,4q-2.16,2.09-4.76,4.46l2.4-.16c.8-.06,1.59-.08,2.36-.08h8.4v2.84Z"/>
        <path d="M1574,57.71a15.51,15.51,0,0,1-5.32-.9,19.31,19.31,0,0,1-4.24-2.14l1.52-2.16a15.27,15.27,0,0,0,3.7,1.92,14.42,14.42,0,0,0,4.74.71,6.15,6.15,0,0,0,3.7-.9,2.62,2.62,0,0,0,1.22-2.14,2.79,2.79,0,0,0-.2-1,2.22,2.22,0,0,0-.86-.92,7.87,7.87,0,0,0-1.86-.83,26,26,0,0,0-3.16-.8,15.72,15.72,0,0,1-5.7-2.15,4.12,4.12,0,0,1-1.9-3.54,4.7,4.7,0,0,1,.52-2.18,5,5,0,0,1,1.54-1.75,7.73,7.73,0,0,1,2.52-1.16,13.73,13.73,0,0,1,7.82.32,15,15,0,0,1,3.52,1.73l-1.6,2.12a12.68,12.68,0,0,0-3-1.47,10.65,10.65,0,0,0-3.52-.57,5.44,5.44,0,0,0-3.48.85,2.49,2.49,0,0,0-1,2,2.07,2.07,0,0,0,1.32,1.93,18.77,18.77,0,0,0,4.32,1.3,29,29,0,0,1,4,1.11,8.51,8.51,0,0,1,2.46,1.3,3.83,3.83,0,0,1,1.24,1.59,5.48,5.48,0,0,1,.34,2,4.65,4.65,0,0,1-.56,2.24,5.44,5.44,0,0,1-1.66,1.84,8.25,8.25,0,0,1-2.72,1.26A13.41,13.41,0,0,1,1574,57.71Z"/>
        <path d="M1595.41,57.71a8.22,8.22,0,0,1-2.56-.39,6.52,6.52,0,0,1-2.1-1.08,5,5,0,0,1-1.42-1.72,5,5,0,0,1-.52-2.34,5.22,5.22,0,0,1,.78-2.86,6.24,6.24,0,0,1,2.48-2.09,17.38,17.38,0,0,1,4.38-1.45,56.9,56.9,0,0,1,6.44-.88,7.18,7.18,0,0,0-.32-1.88,4,4,0,0,0-2.46-2.59,6.23,6.23,0,0,0-2.38-.41,9.28,9.28,0,0,0-3.68.75,21.59,21.59,0,0,0-3.12,1.58l-1.28-2.25a16.86,16.86,0,0,1,1.7-1,16.29,16.29,0,0,1,2.08-.9,17.33,17.33,0,0,1,2.34-.67,12.52,12.52,0,0,1,2.52-.25q4,0,5.94,2.17a8.48,8.48,0,0,1,1.94,5.83V57.23h-2.68l-.28-2.64h-.12a18.45,18.45,0,0,1-3.62,2.19A9.44,9.44,0,0,1,1595.41,57.71Zm.88-2.65a7.77,7.77,0,0,0,3.3-.74,14.52,14.52,0,0,0,3.3-2.14V47.06a44.3,44.3,0,0,0-5.22.68,14.47,14.47,0,0,0-3.36,1.07,4.33,4.33,0,0,0-1.78,1.4,3,3,0,0,0-.52,1.73,2.6,2.6,0,0,0,.36,1.42,3,3,0,0,0,.94,1,4.07,4.07,0,0,0,1.36.57A7.18,7.18,0,0,0,1596.29,55.06Z"/>
        <path d="M1611.89,57.23V37.78h2.64l.28,2.57h.08a7.94,7.94,0,0,1,1.76-2.21,4.09,4.09,0,0,1,2.68-.83q2.84,0,3.68,3.36a8.81,8.81,0,0,1,1.86-2.46,3.88,3.88,0,0,1,2.7-.9,3.72,3.72,0,0,1,3.18,1.54,7.4,7.4,0,0,1,1.14,4.46V57.23h-3.28V43.55c0-2.27-.69-3.41-2.08-3.41a2.11,2.11,0,0,0-1.68.75,11.94,11.94,0,0,0-1.44,2.25V57.23h-3V43.55a5.48,5.48,0,0,0-.46-2.54,1.61,1.61,0,0,0-1.54-.87,2.35,2.35,0,0,0-1.76.75,8.41,8.41,0,0,0-1.44,2.25V57.23Z"/>
        <path d="M1637.29,65.43V37.78H1640l.28,2.49h.12a12,12,0,0,1,3.14-2.13,8.43,8.43,0,0,1,3.58-.83,8,8,0,0,1,3.46.7,6.73,6.73,0,0,1,2.52,2,8.94,8.94,0,0,1,1.54,3.12,15.17,15.17,0,0,1,.52,4.1,12.59,12.59,0,0,1-.72,4.41,10.11,10.11,0,0,1-1.94,3.3,8.21,8.21,0,0,1-2.82,2.07,8.43,8.43,0,0,1-3.36.7,7.83,7.83,0,0,1-2.94-.66,9.75,9.75,0,0,1-2.86-1.87h-.12l.16,3.68v6.57Zm8.48-10.49a5.31,5.31,0,0,0,4.32-2,8.65,8.65,0,0,0,1.68-5.67,12.49,12.49,0,0,0-.32-2.92,6.67,6.67,0,0,0-1-2.26,4.44,4.44,0,0,0-1.7-1.46,5.46,5.46,0,0,0-2.48-.53,6.34,6.34,0,0,0-2.74.71,10.85,10.85,0,0,0-3,2.21v9.69a9.21,9.21,0,0,0,2.8,1.76A7.19,7.19,0,0,0,1645.77,54.94Z"/>
        <path d="M1673.85,57.71a6.17,6.17,0,0,1-4.76-1.77,7.39,7.39,0,0,1-1.64-5.23V31.43h-6.92V28.74h10.2v22.2a4,4,0,0,0,1,3.11,4,4,0,0,0,2.8.93,8.69,8.69,0,0,0,3.64-.88l.84,2.45a19.84,19.84,0,0,1-2.48.85A10.61,10.61,0,0,1,1673.85,57.71Z"/>
        <path d="M1694.77,57.71a11.92,11.92,0,0,1-4.1-.69,9.49,9.49,0,0,1-3.32-2,9.33,9.33,0,0,1-2.24-3.21,10.84,10.84,0,0,1-.82-4.34,10.41,10.41,0,0,1,.82-4.24,9.65,9.65,0,0,1,2.2-3.21,9.46,9.46,0,0,1,3.16-2,10,10,0,0,1,3.74-.7A9.85,9.85,0,0,1,1698,38a7.57,7.57,0,0,1,2.8,1.85,8.19,8.19,0,0,1,1.74,2.89,10.91,10.91,0,0,1,.6,3.72c0,.37,0,.73,0,1.08s-.07.65-.12.92h-15.32a6.81,6.81,0,0,0,2.42,5,8,8,0,0,0,5.14,1.66,9.39,9.39,0,0,0,3.18-.5,13.58,13.58,0,0,0,2.74-1.33l1.2,2.16A15.86,15.86,0,0,1,1699,57,12.09,12.09,0,0,1,1694.77,57.71Zm-.48-17.81a6.59,6.59,0,0,0-2.3.41,6.49,6.49,0,0,0-2,1.13,6.29,6.29,0,0,0-1.48,1.87,8.14,8.14,0,0,0-.84,2.55h12.4a6.52,6.52,0,0,0-1.74-4.47A5.61,5.61,0,0,0,1694.29,39.9Z"/>
        <path d="M1708,62.82V60h19.2v2.84Z"/>
        <path d="M1739.41,57.71a8.22,8.22,0,0,1-2.56-.39,6.52,6.52,0,0,1-2.1-1.08,4.84,4.84,0,0,1-1.42-1.72,5,5,0,0,1-.52-2.34,5.22,5.22,0,0,1,.78-2.86,6.17,6.17,0,0,1,2.48-2.09,17.38,17.38,0,0,1,4.38-1.45,56.58,56.58,0,0,1,6.44-.88,7.62,7.62,0,0,0-.32-1.88,4,4,0,0,0-2.46-2.59,6.26,6.26,0,0,0-2.38-.41,9.28,9.28,0,0,0-3.68.75,20.6,20.6,0,0,0-3.12,1.58l-1.28-2.25a19.18,19.18,0,0,1,3.78-1.87,17.33,17.33,0,0,1,2.34-.67,12.38,12.38,0,0,1,2.52-.25q4,0,5.94,2.17a8.48,8.48,0,0,1,1.94,5.83V57.23h-2.68l-.28-2.64h-.12a18.75,18.75,0,0,1-3.62,2.19A9.48,9.48,0,0,1,1739.41,57.71Zm.88-2.65a7.77,7.77,0,0,0,3.3-.74,14.52,14.52,0,0,0,3.3-2.14V47.06a44.3,44.3,0,0,0-5.22.68,14.47,14.47,0,0,0-3.36,1.07,4.27,4.27,0,0,0-1.78,1.4,3,3,0,0,0-.52,1.73,2.6,2.6,0,0,0,.36,1.42,3,3,0,0,0,.94,1,4,4,0,0,0,1.36.57A7.18,7.18,0,0,0,1740.29,55.06Z"/>
        <path d="M1764.41,57.71A8.35,8.35,0,0,1,1761,57a7.37,7.37,0,0,1-2.66-2,9,9,0,0,1-1.72-3.19,14.16,14.16,0,0,1-.6-4.31,11.56,11.56,0,0,1,.74-4.27,10,10,0,0,1,2-3.22,8.71,8.71,0,0,1,2.82-2,8.12,8.12,0,0,1,3.32-.71A7.06,7.06,0,0,1,1768,38a10.4,10.4,0,0,1,2.66,1.85h.12l-.16-3.59V28.74h3.28V57.23h-2.72l-.28-2.56h-.12a12,12,0,0,1-2.86,2.14A7.29,7.29,0,0,1,1764.41,57.71Zm.68-2.77c1.92,0,3.74-1,5.48-2.92V42.35a8.53,8.53,0,0,0-2.58-1.76,6.57,6.57,0,0,0-2.54-.53,5.3,5.3,0,0,0-2.38.54,5.78,5.78,0,0,0-1.92,1.53,7.35,7.35,0,0,0-1.3,2.34,9.06,9.06,0,0,0-.48,3,8.81,8.81,0,0,0,1.5,5.47A5,5,0,0,0,1765.09,54.94Z"/>
        <path d="M1788.41,57.71A8.35,8.35,0,0,1,1785,57a7.37,7.37,0,0,1-2.66-2,9,9,0,0,1-1.72-3.19,14.16,14.16,0,0,1-.6-4.31,11.56,11.56,0,0,1,.74-4.27,10,10,0,0,1,2-3.22,8.71,8.71,0,0,1,2.82-2,8.12,8.12,0,0,1,3.32-.71A7.06,7.06,0,0,1,1792,38a10.4,10.4,0,0,1,2.66,1.85h.12l-.16-3.59V28.74h3.28V57.23h-2.72l-.28-2.56h-.12a12,12,0,0,1-2.86,2.14A7.29,7.29,0,0,1,1788.41,57.71Zm.68-2.77c1.92,0,3.74-1,5.48-2.92V42.35a8.53,8.53,0,0,0-2.58-1.76,6.57,6.57,0,0,0-2.54-.53,5.3,5.3,0,0,0-2.38.54,5.78,5.78,0,0,0-1.92,1.53,7.35,7.35,0,0,0-1.3,2.34,9.06,9.06,0,0,0-.48,3,8.81,8.81,0,0,0,1.5,5.47A5,5,0,0,0,1789.09,54.94Z"/>
        <path d="M1807.41,57.23V37.78h2.72l.28,4.61h.12a11.55,11.55,0,0,1,3.74-3.72,9.22,9.22,0,0,1,4.94-1.36,10.5,10.5,0,0,1,2,.17,8,8,0,0,1,1.84.62l-.76,2.84c-.7-.23-1.28-.41-1.74-.51a8.5,8.5,0,0,0-1.86-.16,7.82,7.82,0,0,0-4.22,1.25,12,12,0,0,0-3.78,4.3V57.23Z"/>
        <path d="M1838.77,57.71a11.88,11.88,0,0,1-4.1-.69,9.36,9.36,0,0,1-5.56-5.21,10.84,10.84,0,0,1-.82-4.34,10.41,10.41,0,0,1,.82-4.24,9.65,9.65,0,0,1,2.2-3.21,9.46,9.46,0,0,1,3.16-2,10,10,0,0,1,3.74-.7A9.89,9.89,0,0,1,1842,38a7.66,7.66,0,0,1,2.8,1.85,8.19,8.19,0,0,1,1.74,2.89,10.91,10.91,0,0,1,.6,3.72c0,.37,0,.73,0,1.08s-.07.65-.12.92h-15.32a6.81,6.81,0,0,0,2.42,5,8,8,0,0,0,5.14,1.66,9.39,9.39,0,0,0,3.18-.5,13.84,13.84,0,0,0,2.74-1.33l1.2,2.16A15.86,15.86,0,0,1,1843,57,12.09,12.09,0,0,1,1838.77,57.71Zm-.48-17.81a6.59,6.59,0,0,0-2.3.41,6.13,6.13,0,0,0-3.46,3,8.14,8.14,0,0,0-.84,2.55h12.4a6.61,6.61,0,0,0-1.74-4.47A5.61,5.61,0,0,0,1838.29,39.9Z"/>
        <path d="M1862,57.71a15.47,15.47,0,0,1-5.32-.9,19.31,19.31,0,0,1-4.24-2.14l1.52-2.16a15.27,15.27,0,0,0,3.7,1.92,14.33,14.33,0,0,0,4.74.71,6.18,6.18,0,0,0,3.7-.9,2.62,2.62,0,0,0,1.22-2.14,2.79,2.79,0,0,0-.2-1,2.29,2.29,0,0,0-.86-.92,7.87,7.87,0,0,0-1.86-.83,26.45,26.45,0,0,0-3.16-.8,15.57,15.57,0,0,1-5.7-2.15,4.12,4.12,0,0,1-1.9-3.54,4.7,4.7,0,0,1,.52-2.18,4.91,4.91,0,0,1,1.54-1.75,7.73,7.73,0,0,1,2.52-1.16,13.73,13.73,0,0,1,7.82.32,15.19,15.19,0,0,1,3.52,1.73l-1.6,2.12a12.68,12.68,0,0,0-3-1.47,10.69,10.69,0,0,0-3.52-.57,5.4,5.4,0,0,0-3.48.85,2.49,2.49,0,0,0-1,2,2.07,2.07,0,0,0,1.32,1.93,18.77,18.77,0,0,0,4.32,1.3,29.41,29.41,0,0,1,4,1.11,8.51,8.51,0,0,1,2.46,1.3,3.83,3.83,0,0,1,1.24,1.59,5.7,5.7,0,0,1,.34,2,4.65,4.65,0,0,1-.56,2.24,5.54,5.54,0,0,1-1.66,1.84,8.35,8.35,0,0,1-2.72,1.26A13.46,13.46,0,0,1,1862,57.71Z"/>
        <path d="M1886,57.71a15.47,15.47,0,0,1-5.32-.9,19.31,19.31,0,0,1-4.24-2.14l1.52-2.16a15.27,15.27,0,0,0,3.7,1.92,14.33,14.33,0,0,0,4.74.71,6.18,6.18,0,0,0,3.7-.9,2.62,2.62,0,0,0,1.22-2.14,2.79,2.79,0,0,0-.2-1,2.29,2.29,0,0,0-.86-.92,7.87,7.87,0,0,0-1.86-.83,26.45,26.45,0,0,0-3.16-.8,15.57,15.57,0,0,1-5.7-2.15,4.12,4.12,0,0,1-1.9-3.54,4.7,4.7,0,0,1,.52-2.18,4.91,4.91,0,0,1,1.54-1.75,7.73,7.73,0,0,1,2.52-1.16,13.73,13.73,0,0,1,7.82.32,15.19,15.19,0,0,1,3.52,1.73l-1.6,2.12a12.68,12.68,0,0,0-3-1.47,10.69,10.69,0,0,0-3.52-.57,5.4,5.4,0,0,0-3.48.85,2.49,2.49,0,0,0-1,2,2.07,2.07,0,0,0,1.32,1.93,18.77,18.77,0,0,0,4.32,1.3,29.41,29.41,0,0,1,4,1.11,8.51,8.51,0,0,1,2.46,1.3,3.83,3.83,0,0,1,1.24,1.59,5.7,5.7,0,0,1,.34,2,4.65,4.65,0,0,1-.56,2.24,5.54,5.54,0,0,1-1.66,1.84,8.35,8.35,0,0,1-2.72,1.26A13.46,13.46,0,0,1,1886,57.71Z"/>
        <path d="M1910.77,57.71a12,12,0,0,1-4.11-.69,9.44,9.44,0,0,1-3.31-2,9.33,9.33,0,0,1-2.24-3.21,10.84,10.84,0,0,1-.83-4.34,10.41,10.41,0,0,1,.83-4.24,9.65,9.65,0,0,1,2.2-3.21,9.46,9.46,0,0,1,3.16-2,10,10,0,0,1,3.73-.7,9.82,9.82,0,0,1,3.74.66,7.57,7.57,0,0,1,2.8,1.85,8,8,0,0,1,1.74,2.89,10.68,10.68,0,0,1,.6,3.72q0,.55,0,1.08c0,.34-.07.65-.12.92h-15.32a6.81,6.81,0,0,0,2.41,5,8,8,0,0,0,5.14,1.66,9.41,9.41,0,0,0,3.19-.5,13.76,13.76,0,0,0,2.73-1.33l1.2,2.16A15.61,15.61,0,0,1,1915,57,12,12,0,0,1,1910.77,57.71Zm-.49-17.81a6.64,6.64,0,0,0-2.3.41,6.32,6.32,0,0,0-2,1.13,6.48,6.48,0,0,0-1.49,1.87,8.13,8.13,0,0,0-.83,2.55h12.39a6.56,6.56,0,0,0-1.73-4.47A5.62,5.62,0,0,0,1910.28,39.9Z"/>
        <path d="M1934,57.71a15.47,15.47,0,0,1-5.32-.9,19.62,19.62,0,0,1-4.25-2.14l1.53-2.16a15.39,15.39,0,0,0,3.69,1.92,14.42,14.42,0,0,0,4.74.71,6.13,6.13,0,0,0,3.7-.9,2.57,2.57,0,0,0,1-3.18,2.25,2.25,0,0,0-.85-.92,8.16,8.16,0,0,0-1.87-.83,26,26,0,0,0-3.16-.8,15.58,15.58,0,0,1-5.69-2.15,4.12,4.12,0,0,1-1.9-3.54,4.82,4.82,0,0,1,.51-2.18,5,5,0,0,1,1.54-1.75,7.89,7.89,0,0,1,2.53-1.16,13.73,13.73,0,0,1,7.82.32,15.11,15.11,0,0,1,3.51,1.73l-1.59,2.12a12.68,12.68,0,0,0-3-1.47,10.71,10.71,0,0,0-3.53-.57,5.39,5.39,0,0,0-3.47.85,2.49,2.49,0,0,0-1,2,2.06,2.06,0,0,0,1.31,1.93,18.77,18.77,0,0,0,4.32,1.3,29,29,0,0,1,4,1.11,8.25,8.25,0,0,1,2.46,1.3,3.86,3.86,0,0,1,1.25,1.59,5.7,5.7,0,0,1,.34,2,4.65,4.65,0,0,1-.56,2.24,5.54,5.54,0,0,1-1.66,1.84,8.41,8.41,0,0,1-2.73,1.26A13.38,13.38,0,0,1,1934,57.71Z"/>
        <path d="M1957.56,57.71a3.12,3.12,0,0,1-2.29-.93,3.23,3.23,0,0,1-1-2.43,3.3,3.3,0,0,1,1-2.46,3.25,3.25,0,0,1,4.59,0,3.3,3.3,0,0,1,1,2.46,3.23,3.23,0,0,1-1,2.43A3.13,3.13,0,0,1,1957.56,57.71Z"/>
        <path d="M1983.4,57.71a12.54,12.54,0,0,1-4.22-.69,9.9,9.9,0,0,1-3.38-2,9.06,9.06,0,0,1-2.24-3.2,11.1,11.1,0,0,1-.8-4.3,10.44,10.44,0,0,1,.86-4.34A9.7,9.7,0,0,1,1976,40a10.17,10.17,0,0,1,3.46-2,12.89,12.89,0,0,1,4.18-.67,9.58,9.58,0,0,1,4.14.83,11.51,11.51,0,0,1,2.94,2L1989,42.27a10.06,10.06,0,0,0-2.5-1.64,6.61,6.61,0,0,0-2.82-.61,8.74,8.74,0,0,0-3.08.54,6.94,6.94,0,0,0-2.38,1.54,7.46,7.46,0,0,0-1.54,2.38,8.76,8.76,0,0,0,0,6.11,7,7,0,0,0,1.52,2.34,6.73,6.73,0,0,0,2.36,1.51,8.13,8.13,0,0,0,3.06.54,7.66,7.66,0,0,0,3.3-.7,11.42,11.42,0,0,0,2.7-1.73l1.48,2.12a12.51,12.51,0,0,1-3.6,2.23A10.66,10.66,0,0,1,1983.4,57.71Z"/>
        <path d="M2006,57.71a15.51,15.51,0,0,1-5.32-.9,19.53,19.53,0,0,1-4.24-2.14l1.52-2.16a15.45,15.45,0,0,0,3.7,1.92,14.42,14.42,0,0,0,4.74.71,6.13,6.13,0,0,0,3.7-.9,2.57,2.57,0,0,0,1-3.18,2.22,2.22,0,0,0-.86-.92,7.87,7.87,0,0,0-1.86-.83,26,26,0,0,0-3.16-.8,15.72,15.72,0,0,1-5.7-2.15,4.15,4.15,0,0,1-1.9-3.54,4.83,4.83,0,0,1,.52-2.18,5,5,0,0,1,1.54-1.75,7.73,7.73,0,0,1,2.52-1.16,13.73,13.73,0,0,1,7.82.32,15,15,0,0,1,3.52,1.73l-1.6,2.12a12.31,12.31,0,0,0-3-1.47,10.61,10.61,0,0,0-3.52-.57,5.44,5.44,0,0,0-3.48.85,2.52,2.52,0,0,0-1,2,2.07,2.07,0,0,0,1.32,1.93,18.77,18.77,0,0,0,4.32,1.3,29,29,0,0,1,4,1.11,8.51,8.51,0,0,1,2.46,1.3,3.75,3.75,0,0,1,1.24,1.59,5.48,5.48,0,0,1,.34,2,4.54,4.54,0,0,1-.56,2.24,5.33,5.33,0,0,1-1.66,1.84,8.25,8.25,0,0,1-2.72,1.26A13.41,13.41,0,0,1,2006,57.71Z"/>
        <path d="M2027.8,57.23l-8.2-19.45h3.32l4.48,11q.6,1.49,1.14,2.91c.36.94.72,1.88,1.06,2.82h.16q.52-1.41,1-2.82c.34-.95.7-1.92,1.1-2.91l4.48-11h3.16l-8,19.45Z"/>
      </g>
      <rect class="cls-1" x="18.58" y="18.36" width="256.1" height="54" rx="27"/>
      <rect class="cls-2" x="402.44" y="18.36" width="302.04" height="54" rx="27"/>
      <rect class="cls-3" x="711.53" y="18.36" width="833.21" height="54" rx="27"/>
      <rect class="cls-4" x="1552.49" y="18.36" width="498.43" height="54" rx="25.6"/>
      <rect class="cls-5" x="281.73" y="18.36" width="113.67" height="54" rx="27"/>
    </g>
  </g>
</svg>
