<svg xmlns="http://www.w3.org/2000/svg" width="2066.32" height="89.22" viewBox="0 0 2066.32 89.22">
  <defs>
    <style>
      .cls-1 {
        opacity: 0.75;
      }

      .cls-2 {
        opacity: 0.5;
      }
    </style>
  </defs>
  <g id="command_boxes" data-name="command boxes">
    <g>
      <path d="M36.43,57.71A8.38,8.38,0,0,1,33,57a7.54,7.54,0,0,1-2.66-2,9.12,9.12,0,0,1-1.72-3.19,14.16,14.16,0,0,1-.6-4.31,11.77,11.77,0,0,1,.74-4.27,10.32,10.32,0,0,1,2-3.22,8.93,8.93,0,0,1,2.82-2,8.2,8.2,0,0,1,3.32-.72A7,7,0,0,1,40,38a10.23,10.23,0,0,1,2.66,1.85h.12l-.16-3.6V28.74h3.28V57.22H43.15l-.28-2.55h-.12a11.53,11.53,0,0,1-2.86,2.13A7.16,7.16,0,0,1,36.43,57.71Zm.68-2.77q2.88,0,5.48-2.92V42.34A8.67,8.67,0,0,0,40,40.59a6.54,6.54,0,0,0-2.54-.53,5.36,5.36,0,0,0-2.38.54,6,6,0,0,0-1.92,1.53,7.55,7.55,0,0,0-1.3,2.34,9,9,0,0,0-.48,3A8.81,8.81,0,0,0,32.89,53,5,5,0,0,0,37.11,54.94Z"/>
      <path d="M61.59,57.71A9.84,9.84,0,0,1,57.93,57a9,9,0,0,1-3.06-2,9.52,9.52,0,0,1-2.1-3.21A11.2,11.2,0,0,1,52,47.55a11.31,11.31,0,0,1,.78-4.34A9.71,9.71,0,0,1,54.87,40a8.92,8.92,0,0,1,3.06-2,10.19,10.19,0,0,1,7.32,0,8.92,8.92,0,0,1,3.06,2,9.71,9.71,0,0,1,2.1,3.23,11.31,11.31,0,0,1,.78,4.34,11.2,11.2,0,0,1-.78,4.29,9.52,9.52,0,0,1-2.1,3.21,9,9,0,0,1-3.06,2A9.84,9.84,0,0,1,61.59,57.71Zm0-2.73a5.84,5.84,0,0,0,2.54-.54,5.56,5.56,0,0,0,2-1.51,6.93,6.93,0,0,0,1.26-2.34,9.66,9.66,0,0,0,.44-3,9.9,9.9,0,0,0-.44-3.07,7,7,0,0,0-1.26-2.38,5.76,5.76,0,0,0-2-1.54,6.24,6.24,0,0,0-5.08,0,5.86,5.86,0,0,0-2,1.54,7.4,7.4,0,0,0-1.26,2.38,10.21,10.21,0,0,0-.44,3.07,10,10,0,0,0,.44,3,7.3,7.3,0,0,0,1.26,2.34,5.65,5.65,0,0,0,2,1.51A5.87,5.87,0,0,0,61.59,55Z"/>
      <path d="M87.43,57.71A12.54,12.54,0,0,1,83.21,57a9.9,9.9,0,0,1-3.38-2,9,9,0,0,1-2.24-3.21,11,11,0,0,1-.8-4.29,10.44,10.44,0,0,1,.86-4.34A9.7,9.7,0,0,1,80,40a10.17,10.17,0,0,1,3.46-2,12.9,12.9,0,0,1,4.18-.68,9.58,9.58,0,0,1,4.14.84,11.51,11.51,0,0,1,2.94,2l-1.64,2.12a10.3,10.3,0,0,0-2.5-1.63A6.46,6.46,0,0,0,87.75,40a8.74,8.74,0,0,0-3.08.54,6.94,6.94,0,0,0-2.38,1.54,7.46,7.46,0,0,0-1.54,2.38,8.76,8.76,0,0,0,0,6.11,7,7,0,0,0,1.52,2.34,6.73,6.73,0,0,0,2.36,1.51,8.33,8.33,0,0,0,3.06.54,7.66,7.66,0,0,0,3.3-.7,11.42,11.42,0,0,0,2.7-1.73l1.48,2.12a12.51,12.51,0,0,1-3.6,2.23A10.66,10.66,0,0,1,87.43,57.71Z"/>
      <path d="M101.83,57.22V28.74h3.28V48h.16l10.48-10.24h3.76l-7.76,7.65,8.8,11.79h-3.68l-7.16-9.79-4.6,4.51v5.28Z"/>
      <path d="M134.79,57.71a12,12,0,0,1-4.1-.69,9.33,9.33,0,0,1-5.56-5.22,10.93,10.93,0,0,1-.82-4.33,10.67,10.67,0,0,1,.82-4.25,9.86,9.86,0,0,1,2.2-3.2,9.56,9.56,0,0,1,3.16-2,10.11,10.11,0,0,1,3.74-.71A9.82,9.82,0,0,1,138,38a7.57,7.57,0,0,1,2.8,1.85,8.19,8.19,0,0,1,1.74,2.89,10.91,10.91,0,0,1,.6,3.72c0,.37,0,.73,0,1.08a5.88,5.88,0,0,1-.12.92H127.63a6.85,6.85,0,0,0,2.42,5,8,8,0,0,0,5.14,1.66,9.31,9.31,0,0,0,3.18-.5,13.11,13.11,0,0,0,2.74-1.34l1.2,2.16A15.39,15.39,0,0,1,139,57,12,12,0,0,1,134.79,57.71Zm-.48-17.81a6.87,6.87,0,0,0-2.3.4,6.73,6.73,0,0,0-2,1.14,6.54,6.54,0,0,0-1.48,1.86,8.29,8.29,0,0,0-.84,2.56h12.4a6.56,6.56,0,0,0-1.74-4.48A5.63,5.63,0,0,0,134.31,39.9Z"/>
      <path d="M151.43,57.22V37.78h2.72l.28,4.6h.12a11.61,11.61,0,0,1,3.74-3.71,9.26,9.26,0,0,1,4.94-1.37,10.4,10.4,0,0,1,2,.18,7.83,7.83,0,0,1,1.84.62l-.76,2.84a17.26,17.26,0,0,0-1.74-.51,8.35,8.35,0,0,0-1.86-.17,7.88,7.88,0,0,0-4.22,1.26,12.1,12.1,0,0,0-3.78,4.3v11.4Z"/>
      <path d="M199.43,57.22V37.78h2.72l.28,4.6h.12a11.61,11.61,0,0,1,3.74-3.71,9.26,9.26,0,0,1,4.94-1.37,10.4,10.4,0,0,1,2,.18,7.83,7.83,0,0,1,1.84.62l-.76,2.84a17.26,17.26,0,0,0-1.74-.51,8.41,8.41,0,0,0-1.86-.17,7.86,7.86,0,0,0-4.22,1.26,12,12,0,0,0-3.78,4.3v11.4Z"/>
      <path d="M227.43,57.71q-3.52,0-5.14-2t-1.62-5.86V37.78H224V49.43a6.73,6.73,0,0,0,1,4.09,4.06,4.06,0,0,0,3.46,1.34,5.6,5.6,0,0,0,3-.85,14.44,14.44,0,0,0,3-2.75V37.78h3.28V57.22h-2.68l-.28-3.4h-.16a14.29,14.29,0,0,1-3.22,2.81A7.55,7.55,0,0,1,227.43,57.71Z"/>
      <path d="M245.31,57.22V37.78H248l.28,3.32h.16a15.71,15.71,0,0,1,3.28-2.72,7.65,7.65,0,0,1,4-1.08c2.32,0,4,.67,5.1,2a9.1,9.1,0,0,1,1.62,5.86V57.22h-3.28V45.59a6.7,6.7,0,0,0-1-4.11,4.1,4.1,0,0,0-3.44-1.34,5.88,5.88,0,0,0-1.62.22,6.52,6.52,0,0,0-1.46.66,11.18,11.18,0,0,0-1.48,1.11,20.36,20.36,0,0,0-1.6,1.54V57.22Z"/>
      <path d="M293,45.26V42.78h17.2v2.48Z"/>
      <path d="M317,45.26V42.78h17.2v2.48Z"/>
      <path d="M343.43,57.22V37.78h2.72l.28,4.6h.12a11.61,11.61,0,0,1,3.74-3.71,9.26,9.26,0,0,1,4.94-1.37,10.4,10.4,0,0,1,2,.18,7.83,7.83,0,0,1,1.84.62l-.76,2.84a17.26,17.26,0,0,0-1.74-.51,8.41,8.41,0,0,0-1.86-.17,7.83,7.83,0,0,0-4.22,1.26,12,12,0,0,0-3.78,4.3v11.4Z"/>
      <path d="M363.91,57.22V37.78h2.64l.28,2.56h.08a7.86,7.86,0,0,1,1.76-2.2,4.07,4.07,0,0,1,2.68-.84c1.89,0,3.12,1.13,3.68,3.37a8.66,8.66,0,0,1,1.86-2.46,3.89,3.89,0,0,1,2.7-.91,3.75,3.75,0,0,1,3.18,1.54,7.44,7.44,0,0,1,1.14,4.46V57.22h-3.28V43.55c0-2.27-.7-3.41-2.08-3.41a2.11,2.11,0,0,0-1.68.74,12.42,12.42,0,0,0-1.44,2.26V57.22h-3V43.55a5.61,5.61,0,0,0-.46-2.54,1.61,1.61,0,0,0-1.54-.87,2.36,2.36,0,0,0-1.76.74,8.66,8.66,0,0,0-1.44,2.26V57.22Z"/>
      <path d="M413,45.26V42.78h17.2v2.48Z"/>
      <path d="M443.83,57.22l-8.2-19.44H439l4.48,11c.4,1,.78,2,1.14,2.9s.71,1.89,1.06,2.83h.16l1-2.83c.33-.94.7-1.91,1.1-2.9l4.48-11h3.16l-8,19.44Z"/>
      <path d="M485,52.71l1.56-2.28a19.57,19.57,0,0,0,3.34,1.89,9.81,9.81,0,0,0,4.1.82,5.72,5.72,0,0,0,3.62-1,3.09,3.09,0,0,0,1.22-2.5,2.66,2.66,0,0,0-.94-2.07,10.08,10.08,0,0,0-2.34-1.46c-.94-.42-2-.84-3.06-1.24a17.21,17.21,0,0,1-3.06-1.42,8.37,8.37,0,0,1-2.34-2,4.37,4.37,0,0,1-.94-2.89,5.25,5.25,0,0,1,1.78-4.12,8.08,8.08,0,0,1,4.7-1.92V27.3H495v5.25a8.91,8.91,0,0,1,3.68,1,12.82,12.82,0,0,1,2.68,2l-1.76,1.92c-.46-.35-.89-.67-1.3-.95a9.73,9.73,0,0,0-1.3-.72,7.52,7.52,0,0,0-1.48-.46,9.87,9.87,0,0,0-1.8-.16,5.11,5.11,0,0,0-3.22.91,2.86,2.86,0,0,0-1.18,2.42,2.2,2.2,0,0,0,.94,1.83,11,11,0,0,0,2.36,1.33c.94.39,2,.8,3.06,1.19a18.69,18.69,0,0,1,3.06,1.44,8.68,8.68,0,0,1,2.36,2,4.84,4.84,0,0,1,.94,3,5.58,5.58,0,0,1-1.94,4.29,8.45,8.45,0,0,1-2.24,1.37,10.24,10.24,0,0,1-2.86.69v5.85h-2.4V55.82a13.17,13.17,0,0,1-4.24-1.08A14,14,0,0,1,485,52.71Z"/>
      <path d="M509.67,57.22V31h7.92a18.7,18.7,0,0,1,4,.4,8.79,8.79,0,0,1,3.08,1.3,6.07,6.07,0,0,1,2,2.38,8.61,8.61,0,0,1,.7,3.65,8.61,8.61,0,0,1-.7,3.59,6.62,6.62,0,0,1-2,2.52,8.94,8.94,0,0,1-3.08,1.5,14.31,14.31,0,0,1-3.94.5H513v10.4ZM513,44.1h4.2a8.2,8.2,0,0,0,5.12-1.3A4.9,4.9,0,0,0,524,38.71c0-1.9-.56-3.21-1.68-4a9.45,9.45,0,0,0-5.08-1.09H513Z"/>
      <path d="M534,57.22l-4-26.28h3.76l1.92,16.49c.05.55.1,1.06.16,1.51s.1.92.14,1.38.08,1,.12,1.46.07,1.08.1,1.73h.12c.1-.65.21-1.22.32-1.73s.2-1,.3-1.46.19-.92.3-1.38.22-.94.36-1.47l2.56-9.76h3.2l2.48,9.76.36,1.47.3,1.38c.09.47.18,1,.28,1.46s.2,1.08.34,1.73h.16c0-.65.06-1.22.1-1.73s.08-1,.12-1.46l.12-1.38c0-.45.08-.94.14-1.47l1.84-16.53h3.6l-3.84,26.28h-4.16l-2.56-10.55c-.22-.81-.4-1.59-.54-2.37s-.29-1.56-.42-2.36h-.12c-.14.8-.27,1.59-.4,2.36s-.31,1.56-.52,2.37l-2.56,10.55Z"/>
      <path d="M557.07,57.22V31h6.48q6,0,9.06,3.36t3.1,9.64q0,6.29-3.1,9.76t-8.9,3.48Zm3.32-2.71h2.92q4.52,0,6.74-2.77c1.48-1.84,2.22-4.42,2.22-7.76s-.74-5.88-2.22-7.64-3.73-2.63-6.74-2.63h-2.92Z"/>
      <path d="M589.59,43.38a3.15,3.15,0,0,1-2.3-.91,3.27,3.27,0,0,1-.94-2.45,3.32,3.32,0,0,1,.94-2.46,3.13,3.13,0,0,1,2.3-.93,3.16,3.16,0,0,1,2.3.93,3.36,3.36,0,0,1,.94,2.46,3.31,3.31,0,0,1-.94,2.45A3.18,3.18,0,0,1,589.59,43.38Zm0,14.33a3.13,3.13,0,0,1-2.3-.93,3.23,3.23,0,0,1-.94-2.44,3.32,3.32,0,0,1,.94-2.46,3.14,3.14,0,0,1,2.3-.94,3.17,3.17,0,0,1,2.3.94,3.36,3.36,0,0,1,.94,2.46,3.27,3.27,0,0,1-.94,2.44A3.16,3.16,0,0,1,589.59,57.71Z"/>
      <path d="M605.54,63.63l13.12-34.81h3L608.5,63.63Z"/>
      <path d="M641.34,57.71a9.72,9.72,0,0,1-3.56-.58,5.77,5.77,0,0,1-2.32-1.65,6.52,6.52,0,0,1-1.26-2.54,13.28,13.28,0,0,1-.38-3.27v-9.2h-5.48V38l5.6-.2.44-6.23h2.72v6.23h9.56v2.69H637.1v9.24a9.79,9.79,0,0,0,.24,2.3,4.21,4.21,0,0,0,.8,1.66,3.37,3.37,0,0,0,1.52,1A7.05,7.05,0,0,0,642,55a12,12,0,0,0,2.52-.24,12.83,12.83,0,0,0,2.16-.64l.72,2.41a24.45,24.45,0,0,1-2.78.81A14.34,14.34,0,0,1,641.34,57.71Z"/>
      <path d="M651.9,57.22V37.78h2.64l.28,2.56h.08a8.23,8.23,0,0,1,1.76-2.2,4.09,4.09,0,0,1,2.68-.84c1.9,0,3.12,1.13,3.68,3.37a8.66,8.66,0,0,1,1.86-2.46,3.89,3.89,0,0,1,2.7-.91,3.75,3.75,0,0,1,3.18,1.54,7.44,7.44,0,0,1,1.14,4.46V57.22h-3.28V43.55c0-2.27-.69-3.41-2.08-3.41a2.13,2.13,0,0,0-1.68.74,13.62,13.62,0,0,0-1.44,2.26V57.22h-3V43.55a5.48,5.48,0,0,0-.46-2.54,1.6,1.6,0,0,0-1.54-.87,2.38,2.38,0,0,0-1.76.74,8.66,8.66,0,0,0-1.44,2.26V57.22Z"/>
      <path d="M677.3,65.43V37.78H680l.28,2.48h.12a12.56,12.56,0,0,1,3.14-2.12,8.48,8.48,0,0,1,3.58-.84,8,8,0,0,1,3.46.71,6.73,6.73,0,0,1,2.52,2,8.77,8.77,0,0,1,1.54,3.12,14.76,14.76,0,0,1,.52,4.09,12.61,12.61,0,0,1-.72,4.42,9.93,9.93,0,0,1-1.94,3.3A8.12,8.12,0,0,1,689.7,57a8.36,8.36,0,0,1-3.36.7,7.91,7.91,0,0,1-2.94-.66,9.88,9.88,0,0,1-2.86-1.87h-.12l.16,3.68v6.57Zm8.48-10.49a5.34,5.34,0,0,0,4.32-2,8.67,8.67,0,0,0,1.68-5.68,12.1,12.1,0,0,0-.32-2.92,6.51,6.51,0,0,0-1-2.25,4.37,4.37,0,0,0-1.7-1.46,5.44,5.44,0,0,0-2.48-.53,6.5,6.5,0,0,0-2.74.7,11.43,11.43,0,0,0-3,2.22v9.69a9.33,9.33,0,0,0,2.8,1.76A7.29,7.29,0,0,0,685.78,54.94Z"/>
      <path d="M733.42,66.18a12.91,12.91,0,0,1-6.62-1.4,4.41,4.41,0,0,1-2.34-4,3.84,3.84,0,0,1,.82-2.27,7.75,7.75,0,0,1,2.38-2V56.3a4.55,4.55,0,0,1-1.4-1.2,3.12,3.12,0,0,1-.6-2,3.61,3.61,0,0,1,.6-1.89A5.69,5.69,0,0,1,728,49.47V49.3a6.33,6.33,0,0,1-1.7-2,6.18,6.18,0,0,1-.7-3,6.61,6.61,0,0,1,.62-2.88,6.75,6.75,0,0,1,1.66-2.17,7.66,7.66,0,0,1,2.42-1.41,8.64,8.64,0,0,1,2.94-.5,8.36,8.36,0,0,1,2.88.48h8v2.69h-5a5.72,5.72,0,0,1,1.16,1.71,5.22,5.22,0,0,1,.48,2.2,6.43,6.43,0,0,1-.58,2.8,5.94,5.94,0,0,1-1.6,2.1,7,7,0,0,1-2.4,1.32,9.15,9.15,0,0,1-2.94.46,7.37,7.37,0,0,1-1.62-.18,7.67,7.67,0,0,1-1.66-.54,2.71,2.71,0,0,0-1.52,2.25,1.78,1.78,0,0,0,1.06,1.69,6.69,6.69,0,0,0,3,.54h4.36a11.63,11.63,0,0,1,5.58,1,3.72,3.72,0,0,1,1.82,3.52,4.85,4.85,0,0,1-.76,2.6,6.74,6.74,0,0,1-2.16,2.16,12,12,0,0,1-3.4,1.49A16.71,16.71,0,0,1,733.42,66.18Zm.24-2.4a13.47,13.47,0,0,0,3-.31A8.71,8.71,0,0,0,739,62.6a4.33,4.33,0,0,0,1.46-1.24,2.41,2.41,0,0,0,.5-1.46,1.84,1.84,0,0,0-1.1-1.88,9,9,0,0,0-3.34-.47h-3.8c-.56,0-1.08,0-1.58-.07a6,6,0,0,1-1.38-.26,5.43,5.43,0,0,0-1.94,1.58,3,3,0,0,0-.54,1.67,2.7,2.7,0,0,0,1.62,2.41A10,10,0,0,0,733.66,63.78Zm-.44-14.92a4.34,4.34,0,0,0,4.48-4.6,4.56,4.56,0,0,0-.36-1.83,4.48,4.48,0,0,0-1-1.45,4.32,4.32,0,0,0-1.42-.93,4.39,4.39,0,0,0-1.74-.34,4.35,4.35,0,0,0-4.12,2.72,4.56,4.56,0,0,0-.36,1.83,4.41,4.41,0,0,0,1.32,3.37A4.49,4.49,0,0,0,733.22,48.86Z"/>
      <path d="M749.3,57.22V28.74h3.28v7.77l-.2,4.59h.12a16.14,16.14,0,0,1,3.26-2.72,7.55,7.55,0,0,1,4-1.08c2.32,0,4,.67,5.1,2a9.1,9.1,0,0,1,1.62,5.86V57.22h-3.28V45.59a6.63,6.63,0,0,0-1-4.11,4.1,4.1,0,0,0-3.44-1.34,6,6,0,0,0-1.62.22,6.52,6.52,0,0,0-1.46.66,11.18,11.18,0,0,0-1.48,1.11c-.5.43-1,.95-1.6,1.54V57.22Z"/>
      <path d="M783.42,57.71A12.54,12.54,0,0,1,779.2,57a9.9,9.9,0,0,1-3.38-2,9,9,0,0,1-2.24-3.21,11,11,0,0,1-.8-4.29,10.44,10.44,0,0,1,.86-4.34A9.7,9.7,0,0,1,776,40a10.17,10.17,0,0,1,3.46-2,12.9,12.9,0,0,1,4.18-.68,9.58,9.58,0,0,1,4.14.84,11.51,11.51,0,0,1,2.94,2l-1.64,2.12a10.3,10.3,0,0,0-2.5-1.63,6.46,6.46,0,0,0-2.82-.61,8.74,8.74,0,0,0-3.08.54,6.94,6.94,0,0,0-2.38,1.54,7.46,7.46,0,0,0-1.54,2.38,8.76,8.76,0,0,0,0,6.11,7,7,0,0,0,1.52,2.34,6.73,6.73,0,0,0,2.36,1.51,8.33,8.33,0,0,0,3.06.54,7.66,7.66,0,0,0,3.3-.7,11.42,11.42,0,0,0,2.7-1.73l1.48,2.12a12.51,12.51,0,0,1-3.6,2.23A10.66,10.66,0,0,1,783.42,57.71Z"/>
      <path d="M799.42,57.22V37.78h2.72l.28,4.6h.12a11.71,11.71,0,0,1,3.74-3.71,9.26,9.26,0,0,1,4.94-1.37,10.4,10.4,0,0,1,2,.18,7.68,7.68,0,0,1,1.84.62l-.76,2.84a17.26,17.26,0,0,0-1.74-.51,8.28,8.28,0,0,0-1.86-.17,7.88,7.88,0,0,0-4.22,1.26,12.2,12.2,0,0,0-3.78,4.3v11.4Z"/>
      <path d="M829.58,57.71a3.15,3.15,0,0,1-2.3-.93,3.23,3.23,0,0,1-.94-2.44,3.32,3.32,0,0,1,.94-2.46,3.28,3.28,0,0,1,4.6,0,3.32,3.32,0,0,1,.94,2.46,3.23,3.23,0,0,1-.94,2.44A3.15,3.15,0,0,1,829.58,57.71Z"/>
      <path d="M854.22,57.22V40.47h-9V37.78H857.5V57.22Zm1.28-23.51a2.7,2.7,0,0,1-1.88-.7,2.67,2.67,0,0,1,0-3.73,2.91,2.91,0,0,1,3.76,0,2.67,2.67,0,0,1,0,3.73A2.7,2.7,0,0,1,855.5,33.71Z"/>
      <path d="M877.58,57.71a9.84,9.84,0,0,1-3.66-.69,9,9,0,0,1-3.06-2,9.52,9.52,0,0,1-2.1-3.21,11.2,11.2,0,0,1-.78-4.29,11.31,11.31,0,0,1,.78-4.34,9.71,9.71,0,0,1,2.1-3.23,8.92,8.92,0,0,1,3.06-2,10.19,10.19,0,0,1,7.32,0,8.92,8.92,0,0,1,3.06,2,9.71,9.71,0,0,1,2.1,3.23,11.31,11.31,0,0,1,.78,4.34,11.2,11.2,0,0,1-.78,4.29,9.52,9.52,0,0,1-2.1,3.21,9,9,0,0,1-3.06,2A9.84,9.84,0,0,1,877.58,57.71Zm0-2.73a5.87,5.87,0,0,0,2.54-.54,5.65,5.65,0,0,0,2-1.51,6.93,6.93,0,0,0,1.26-2.34,10,10,0,0,0,.44-3,10.21,10.21,0,0,0-.44-3.07,7,7,0,0,0-1.26-2.38,5.86,5.86,0,0,0-2-1.54,6.24,6.24,0,0,0-5.08,0,5.86,5.86,0,0,0-2,1.54,7,7,0,0,0-1.26,2.38,10.21,10.21,0,0,0-.44,3.07,10,10,0,0,0,.44,3,6.93,6.93,0,0,0,1.26,2.34,5.65,5.65,0,0,0,2,1.51A5.87,5.87,0,0,0,877.58,55Z"/>
      <path d="M893.54,63.63l13.12-34.81h3L896.5,63.63Z"/>
      <path d="M924.42,57.71A8.38,8.38,0,0,1,921,57a7.45,7.45,0,0,1-2.66-2,9,9,0,0,1-1.72-3.19,14.16,14.16,0,0,1-.6-4.31,11.77,11.77,0,0,1,.74-4.27,10.14,10.14,0,0,1,2-3.22,8.71,8.71,0,0,1,2.82-2,8.17,8.17,0,0,1,3.32-.72A7.06,7.06,0,0,1,928,38a10.23,10.23,0,0,1,2.66,1.85h.12l-.16-3.6V28.74h3.28V57.22h-2.72l-.28-2.55h-.12a11.53,11.53,0,0,1-2.86,2.13A7.19,7.19,0,0,1,924.42,57.71Zm.68-2.77q2.88,0,5.48-2.92V42.34A8.67,8.67,0,0,0,928,40.59a6.57,6.57,0,0,0-2.54-.53,5.33,5.33,0,0,0-2.38.54,6,6,0,0,0-1.92,1.53,7.35,7.35,0,0,0-1.3,2.34,9,9,0,0,0-.48,3,8.81,8.81,0,0,0,1.5,5.47A5,5,0,0,0,925.1,54.94Z"/>
      <path d="M950.78,57.71a11.92,11.92,0,0,1-4.1-.69,9.33,9.33,0,0,1-5.56-5.22,10.75,10.75,0,0,1-.82-4.33,10.5,10.5,0,0,1,.82-4.25,9.86,9.86,0,0,1,2.2-3.2,9.46,9.46,0,0,1,3.16-2,10.07,10.07,0,0,1,3.74-.71A9.85,9.85,0,0,1,954,38a7.57,7.57,0,0,1,2.8,1.85,8.19,8.19,0,0,1,1.74,2.89,10.91,10.91,0,0,1,.6,3.72c0,.37,0,.73,0,1.08s-.07.65-.12.92H943.62a6.81,6.81,0,0,0,2.42,5,8,8,0,0,0,5.14,1.66,9.39,9.39,0,0,0,3.18-.5,13.11,13.11,0,0,0,2.74-1.34l1.2,2.16A15.39,15.39,0,0,1,955,57,12.09,12.09,0,0,1,950.78,57.71ZM950.3,39.9a6.82,6.82,0,0,0-2.3.4,6.73,6.73,0,0,0-2,1.14,6.37,6.37,0,0,0-1.48,1.86,8.29,8.29,0,0,0-.84,2.56h12.4a6.56,6.56,0,0,0-1.74-4.48A5.65,5.65,0,0,0,950.3,39.9Z"/>
      <path d="M973.42,66.18a12.91,12.91,0,0,1-6.62-1.4,4.41,4.41,0,0,1-2.34-4,3.77,3.77,0,0,1,.82-2.27,7.75,7.75,0,0,1,2.38-2V56.3a4.55,4.55,0,0,1-1.4-1.2,3.12,3.12,0,0,1-.6-2,3.61,3.61,0,0,1,.6-1.89A5.58,5.58,0,0,1,968,49.47V49.3a6.2,6.2,0,0,1-1.7-2,6.07,6.07,0,0,1-.7-3,6.49,6.49,0,0,1,2.28-5,7.55,7.55,0,0,1,2.42-1.41,8.64,8.64,0,0,1,2.94-.5,8.36,8.36,0,0,1,2.88.48h8v2.69h-5a5.91,5.91,0,0,1,1.16,1.71,5.22,5.22,0,0,1,.48,2.2,6.43,6.43,0,0,1-.58,2.8,6.06,6.06,0,0,1-1.6,2.1,7,7,0,0,1-2.4,1.32,9.15,9.15,0,0,1-2.94.46,7.24,7.24,0,0,1-1.62-.18,7.49,7.49,0,0,1-1.66-.54,2.71,2.71,0,0,0-1.52,2.25,1.76,1.76,0,0,0,1.06,1.69,6.69,6.69,0,0,0,3,.54h4.36a11.63,11.63,0,0,1,5.58,1,3.74,3.74,0,0,1,1.82,3.52,4.85,4.85,0,0,1-.76,2.6,7,7,0,0,1-2.16,2.16,12.11,12.11,0,0,1-3.4,1.49A16.76,16.76,0,0,1,973.42,66.18Zm.24-2.4a13.53,13.53,0,0,0,3-.31A8.71,8.71,0,0,0,979,62.6a4.33,4.33,0,0,0,1.46-1.24,2.48,2.48,0,0,0,.5-1.46,1.86,1.86,0,0,0-1.1-1.88,9,9,0,0,0-3.34-.47h-3.8c-.56,0-1.09,0-1.58-.07a6,6,0,0,1-1.38-.26,5.43,5.43,0,0,0-1.94,1.58,3,3,0,0,0-.54,1.67,2.7,2.7,0,0,0,1.62,2.41A10,10,0,0,0,973.66,63.78Zm-.44-14.92a4.34,4.34,0,0,0,4.48-4.6,4.56,4.56,0,0,0-.36-1.83,4.48,4.48,0,0,0-1-1.45,4.32,4.32,0,0,0-1.42-.93,4.62,4.62,0,0,0-3.48,0,4.32,4.32,0,0,0-1.42.93,4.48,4.48,0,0,0-1,1.45,4.56,4.56,0,0,0-.36,1.83,4.41,4.41,0,0,0,1.32,3.37A4.47,4.47,0,0,0,973.22,48.86Z"/>
      <path d="M995.42,57.71a8.22,8.22,0,0,1-2.56-.39,6.52,6.52,0,0,1-2.1-1.08,5,5,0,0,1-1.42-1.72,5,5,0,0,1-.52-2.34,5.22,5.22,0,0,1,.78-2.86,6.26,6.26,0,0,1,2.48-2.1,17.81,17.81,0,0,1,4.38-1.44,56.58,56.58,0,0,1,6.44-.88,7.18,7.18,0,0,0-.32-1.88,4,4,0,0,0-2.46-2.59,6.23,6.23,0,0,0-2.38-.41,9.45,9.45,0,0,0-3.68.74,23.83,23.83,0,0,0-3.12,1.58l-1.28-2.24a15.81,15.81,0,0,1,1.7-1,17.16,17.16,0,0,1,2.08-.91,18.93,18.93,0,0,1,2.34-.66,12.46,12.46,0,0,1,2.52-.26c2.67,0,4.64.73,5.94,2.18a8.47,8.47,0,0,1,1.94,5.82V57.22h-2.68l-.28-2.63h-.12a18.75,18.75,0,0,1-3.62,2.19A9.44,9.44,0,0,1,995.42,57.71Zm.88-2.65a7.77,7.77,0,0,0,3.3-.74,14.52,14.52,0,0,0,3.3-2.14V47.06a42.28,42.28,0,0,0-5.22.68,15,15,0,0,0-3.36,1.06,4.43,4.43,0,0,0-1.78,1.41,3,3,0,0,0-.52,1.73,2.6,2.6,0,0,0,.36,1.42,3,3,0,0,0,.94,1,4,4,0,0,0,1.36.56A6.65,6.65,0,0,0,996.3,55.06Z"/>
      <path d="M1019.42,57.71q-3.52,0-5.14-2t-1.62-5.86V37.78H1016V49.43a6.73,6.73,0,0,0,1,4.09,4.06,4.06,0,0,0,3.46,1.34,5.6,5.6,0,0,0,3-.85,15,15,0,0,0,3-2.75V37.78h3.28V57.22h-2.68l-.28-3.4h-.16a14.29,14.29,0,0,1-3.22,2.81A7.55,7.55,0,0,1,1019.42,57.71Z"/>
      <path d="M1046,57.71a15.23,15.23,0,0,1-5.32-.91,18.87,18.87,0,0,1-4.24-2.13l1.52-2.16a15.63,15.63,0,0,0,3.7,1.92,14.33,14.33,0,0,0,4.74.71,6.23,6.23,0,0,0,3.7-.9,2.62,2.62,0,0,0,1.22-2.14,2.75,2.75,0,0,0-.2-1,2.22,2.22,0,0,0-.86-.92,8.26,8.26,0,0,0-1.86-.84,28.82,28.82,0,0,0-3.16-.79,15.64,15.64,0,0,1-5.7-2.15,4.12,4.12,0,0,1-1.9-3.54,4.7,4.7,0,0,1,.52-2.18,5,5,0,0,1,1.54-1.76,8.17,8.17,0,0,1,2.52-1.16,13,13,0,0,1,3.5-.42,12.67,12.67,0,0,1,4.32.75,15.19,15.19,0,0,1,3.52,1.73l-1.6,2.12a12.68,12.68,0,0,0-3-1.47,10.65,10.65,0,0,0-3.52-.57,5.44,5.44,0,0,0-3.48.85,2.47,2.47,0,0,0-1,2,2.07,2.07,0,0,0,1.32,1.93,18.77,18.77,0,0,0,4.32,1.3,29.41,29.41,0,0,1,4,1.11A8.76,8.76,0,0,1,1053,48.3a3.92,3.92,0,0,1,1.24,1.6,5.7,5.7,0,0,1,.34,2,4.65,4.65,0,0,1-.56,2.24A5.44,5.44,0,0,1,1052.4,56a8.35,8.35,0,0,1-2.72,1.26A13.46,13.46,0,0,1,1046,57.71Z"/>
      <path d="M1070,57.71a15.23,15.23,0,0,1-5.32-.91,18.87,18.87,0,0,1-4.24-2.13l1.52-2.16a15.63,15.63,0,0,0,3.7,1.92,14.33,14.33,0,0,0,4.74.71,6.25,6.25,0,0,0,3.7-.9,2.62,2.62,0,0,0,1.22-2.14,2.75,2.75,0,0,0-.2-1,2.29,2.29,0,0,0-.86-.92,8.26,8.26,0,0,0-1.86-.84,28.82,28.82,0,0,0-3.16-.79,15.57,15.57,0,0,1-5.7-2.15,4.12,4.12,0,0,1-1.9-3.54,4.7,4.7,0,0,1,.52-2.18,5,5,0,0,1,1.54-1.76,8.17,8.17,0,0,1,2.52-1.16,13,13,0,0,1,3.5-.42,12.67,12.67,0,0,1,4.32.75,15.19,15.19,0,0,1,3.52,1.73l-1.6,2.12a12.68,12.68,0,0,0-3-1.47,10.69,10.69,0,0,0-3.52-.57,5.4,5.4,0,0,0-3.48.85,2.47,2.47,0,0,0-1,2,2.07,2.07,0,0,0,1.32,1.93,18.77,18.77,0,0,0,4.32,1.3,29.41,29.41,0,0,1,4,1.11A8.76,8.76,0,0,1,1077,48.3a3.92,3.92,0,0,1,1.24,1.6,5.7,5.7,0,0,1,.34,2,4.65,4.65,0,0,1-.56,2.24A5.54,5.54,0,0,1,1076.4,56a8.35,8.35,0,0,1-2.72,1.26A13.46,13.46,0,0,1,1070,57.71Z"/>
      <path d="M1085,45.26V42.78h17.2v2.48Z"/>
      <path d="M1117.58,57.71a9.84,9.84,0,0,1-3.66-.69,9,9,0,0,1-3.06-2,9.52,9.52,0,0,1-2.1-3.21,11.2,11.2,0,0,1-.78-4.29,11.31,11.31,0,0,1,.78-4.34,9.71,9.71,0,0,1,2.1-3.23,8.92,8.92,0,0,1,3.06-2,10.19,10.19,0,0,1,7.32,0,8.92,8.92,0,0,1,3.06,2,9.71,9.71,0,0,1,2.1,3.23,11.31,11.31,0,0,1,.78,4.34,11.2,11.2,0,0,1-.78,4.29,9.52,9.52,0,0,1-2.1,3.21,9,9,0,0,1-3.06,2A9.84,9.84,0,0,1,1117.58,57.71Zm0-2.73a5.87,5.87,0,0,0,2.54-.54,5.65,5.65,0,0,0,2-1.51,7.3,7.3,0,0,0,1.26-2.34,10,10,0,0,0,.44-3,10.21,10.21,0,0,0-.44-3.07,7.4,7.4,0,0,0-1.26-2.38,5.86,5.86,0,0,0-2-1.54,6.24,6.24,0,0,0-5.08,0,5.76,5.76,0,0,0-2,1.54,7,7,0,0,0-1.26,2.38,9.9,9.9,0,0,0-.44,3.07,9.66,9.66,0,0,0,.44,3,6.93,6.93,0,0,0,1.26,2.34,5.56,5.56,0,0,0,2,1.51A5.84,5.84,0,0,0,1117.58,55Z"/>
      <path d="M1135.42,57.22V37.78h2.72l.28,4.6h.12a11.61,11.61,0,0,1,3.74-3.71,9.23,9.23,0,0,1,4.94-1.37,10.47,10.47,0,0,1,2,.18,8,8,0,0,1,1.84.62l-.76,2.84c-.7-.23-1.28-.41-1.74-.51a8.41,8.41,0,0,0-1.86-.17,7.83,7.83,0,0,0-4.22,1.26,12,12,0,0,0-3.78,4.3v11.4Z"/>
      <path d="M1165.42,66.18a12.89,12.89,0,0,1-6.62-1.4,4.41,4.41,0,0,1-2.34-4,3.77,3.77,0,0,1,.82-2.27,7.63,7.63,0,0,1,2.38-2V56.3a4.44,4.44,0,0,1-1.4-1.2,3.12,3.12,0,0,1-.6-2,3.61,3.61,0,0,1,.6-1.89,5.58,5.58,0,0,1,1.72-1.74V49.3a6.14,6.14,0,0,1-2.4-5,6.49,6.49,0,0,1,2.28-5,7.55,7.55,0,0,1,2.42-1.41,8.64,8.64,0,0,1,2.94-.5,8.44,8.44,0,0,1,2.88.48h8v2.69h-5a5.91,5.91,0,0,1,1.16,1.71,5.22,5.22,0,0,1,.48,2.2,6.58,6.58,0,0,1-.58,2.8,6.06,6.06,0,0,1-1.6,2.1,7,7,0,0,1-2.4,1.32,9.15,9.15,0,0,1-2.94.46,7.24,7.24,0,0,1-1.62-.18,7.33,7.33,0,0,1-1.66-.54,2.69,2.69,0,0,0-1.52,2.25,1.76,1.76,0,0,0,1.06,1.69,6.66,6.66,0,0,0,3,.54h4.36a11.68,11.68,0,0,1,5.58,1,3.74,3.74,0,0,1,1.82,3.52,4.94,4.94,0,0,1-.76,2.6,7,7,0,0,1-2.16,2.16,12.24,12.24,0,0,1-3.4,1.49A16.81,16.81,0,0,1,1165.42,66.18Zm.24-2.4a13.53,13.53,0,0,0,3-.31,8.84,8.84,0,0,0,2.32-.87,4.43,4.43,0,0,0,1.46-1.24,2.48,2.48,0,0,0,.5-1.46,1.86,1.86,0,0,0-1.1-1.88,9.07,9.07,0,0,0-3.34-.47h-3.8c-.56,0-1.09,0-1.58-.07a5.83,5.83,0,0,1-1.38-.26,5.34,5.34,0,0,0-1.94,1.58,3,3,0,0,0-.54,1.67,2.7,2.7,0,0,0,1.62,2.41A10,10,0,0,0,1165.66,63.78Zm-.44-14.92a4.34,4.34,0,0,0,4.48-4.6,4.56,4.56,0,0,0-.36-1.83,4.48,4.48,0,0,0-1-1.45,4.58,4.58,0,0,0-4.9-.93,4.32,4.32,0,0,0-1.42.93,4.48,4.48,0,0,0-1,1.45,4.56,4.56,0,0,0-.36,1.83,4.41,4.41,0,0,0,1.32,3.37A4.47,4.47,0,0,0,1165.22,48.86Z"/>
      <path d="M1181.54,63.63l13.12-34.81h3L1184.5,63.63Z"/>
      <path d="M1213.42,66.18a12.89,12.89,0,0,1-6.62-1.4,4.41,4.41,0,0,1-2.34-4,3.77,3.77,0,0,1,.82-2.27,7.63,7.63,0,0,1,2.38-2V56.3a4.44,4.44,0,0,1-1.4-1.2,3.12,3.12,0,0,1-.6-2,3.61,3.61,0,0,1,.6-1.89,5.58,5.58,0,0,1,1.72-1.74V49.3a6.14,6.14,0,0,1-2.4-5,6.49,6.49,0,0,1,2.28-5,7.55,7.55,0,0,1,2.42-1.41,8.64,8.64,0,0,1,2.94-.5,8.44,8.44,0,0,1,2.88.48h8v2.69h-5a5.91,5.91,0,0,1,1.16,1.71,5.22,5.22,0,0,1,.48,2.2,6.58,6.58,0,0,1-.58,2.8,6.06,6.06,0,0,1-1.6,2.1,7,7,0,0,1-2.4,1.32,9.15,9.15,0,0,1-2.94.46,7.24,7.24,0,0,1-1.62-.18,7.33,7.33,0,0,1-1.66-.54,2.69,2.69,0,0,0-1.52,2.25,1.76,1.76,0,0,0,1.06,1.69,6.66,6.66,0,0,0,3,.54h4.36a11.68,11.68,0,0,1,5.58,1,3.74,3.74,0,0,1,1.82,3.52,4.94,4.94,0,0,1-.76,2.6,7,7,0,0,1-2.16,2.16,12.24,12.24,0,0,1-3.4,1.49A16.81,16.81,0,0,1,1213.42,66.18Zm.24-2.4a13.53,13.53,0,0,0,3-.31,8.84,8.84,0,0,0,2.32-.87,4.43,4.43,0,0,0,1.46-1.24,2.48,2.48,0,0,0,.5-1.46,1.86,1.86,0,0,0-1.1-1.88,9.07,9.07,0,0,0-3.34-.47h-3.8c-.56,0-1.09,0-1.58-.07a5.83,5.83,0,0,1-1.38-.26,5.34,5.34,0,0,0-1.94,1.58,3,3,0,0,0-.54,1.67,2.7,2.7,0,0,0,1.62,2.41A10,10,0,0,0,1213.66,63.78Zm-.44-14.92a4.34,4.34,0,0,0,4.48-4.6,4.56,4.56,0,0,0-.36-1.83,4.48,4.48,0,0,0-1-1.45,4.58,4.58,0,0,0-4.9-.93,4.32,4.32,0,0,0-1.42.93,4.48,4.48,0,0,0-1,1.45,4.56,4.56,0,0,0-.36,1.83,4.41,4.41,0,0,0,1.32,3.37A4.47,4.47,0,0,0,1213.22,48.86Z"/>
      <path d="M1238.78,57.71a11.88,11.88,0,0,1-4.1-.69,9.4,9.4,0,0,1-3.32-2,9.27,9.27,0,0,1-2.24-3.22,10.75,10.75,0,0,1-.82-4.33,10.5,10.5,0,0,1,.82-4.25,9.71,9.71,0,0,1,2.2-3.2,9.46,9.46,0,0,1,3.16-2,10,10,0,0,1,3.74-.71A9.89,9.89,0,0,1,1242,38a7.66,7.66,0,0,1,2.8,1.85,8.19,8.19,0,0,1,1.74,2.89,10.91,10.91,0,0,1,.6,3.72c0,.37,0,.73,0,1.08s-.07.65-.12.92h-15.32a6.81,6.81,0,0,0,2.42,5,8,8,0,0,0,5.14,1.66,9.39,9.39,0,0,0,3.18-.5,13.35,13.35,0,0,0,2.74-1.34l1.2,2.16A15.39,15.39,0,0,1,1243,57,12.09,12.09,0,0,1,1238.78,57.71Zm-.48-17.81a6.82,6.82,0,0,0-2.3.4,6.48,6.48,0,0,0-2,1.14,6.37,6.37,0,0,0-1.48,1.86,8.29,8.29,0,0,0-.84,2.56h12.4a6.66,6.66,0,0,0-1.74-4.48A5.65,5.65,0,0,0,1238.3,39.9Z"/>
      <path d="M1261.57,57.71a9.84,9.84,0,0,1-3.66-.69,8.85,8.85,0,0,1-3.05-2,9.54,9.54,0,0,1-2.11-3.21,11.2,11.2,0,0,1-.77-4.29,11.32,11.32,0,0,1,.77-4.34,9.73,9.73,0,0,1,2.11-3.23,8.79,8.79,0,0,1,3.05-2,10.19,10.19,0,0,1,7.32,0,8.83,8.83,0,0,1,3.06,2,9.89,9.89,0,0,1,2.11,3.23,11.51,11.51,0,0,1,.77,4.34,11.39,11.39,0,0,1-.77,4.29,9.69,9.69,0,0,1-2.11,3.21,8.89,8.89,0,0,1-3.06,2A9.8,9.8,0,0,1,1261.57,57.71Zm0-2.73a5.81,5.81,0,0,0,2.54-.54,5.56,5.56,0,0,0,2-1.51,6.93,6.93,0,0,0,1.26-2.34,9.66,9.66,0,0,0,.44-3,9.9,9.9,0,0,0-.44-3.07,7,7,0,0,0-1.26-2.38,5.76,5.76,0,0,0-2-1.54,6,6,0,0,0-2.54-.54,6,6,0,0,0-2.54.54,5.86,5.86,0,0,0-2,1.54,7.4,7.4,0,0,0-1.26,2.38,10.21,10.21,0,0,0-.44,3.07,10,10,0,0,0,.44,3,7.3,7.3,0,0,0,1.26,2.34,5.65,5.65,0,0,0,2,1.51A5.87,5.87,0,0,0,1261.57,55Z"/>
      <path d="M1287.41,57.71a12.58,12.58,0,0,1-4.22-.69,9.9,9.9,0,0,1-3.38-2,9.14,9.14,0,0,1-2.24-3.21,11,11,0,0,1-.8-4.29,10.44,10.44,0,0,1,.86-4.34A9.58,9.58,0,0,1,1280,40a10,10,0,0,1,3.46-2,12.79,12.79,0,0,1,4.17-.68,9.58,9.58,0,0,1,4.14.84,11.34,11.34,0,0,1,2.94,2l-1.63,2.12a10.7,10.7,0,0,0-2.5-1.63,6.54,6.54,0,0,0-2.83-.61,8.74,8.74,0,0,0-3.08.54,6.94,6.94,0,0,0-2.38,1.54,7.46,7.46,0,0,0-1.54,2.38,8.18,8.18,0,0,0-.56,3.07,8.39,8.39,0,0,0,.54,3,7,7,0,0,0,1.52,2.34,6.73,6.73,0,0,0,2.36,1.51,8.37,8.37,0,0,0,3.06.54,7.63,7.63,0,0,0,3.3-.7,11.22,11.22,0,0,0,2.7-1.73l1.48,2.12a12.51,12.51,0,0,1-3.6,2.23A10.62,10.62,0,0,1,1287.41,57.71Z"/>
      <path d="M1309.57,57.71a9.84,9.84,0,0,1-3.66-.69,8.85,8.85,0,0,1-3.05-2,9.54,9.54,0,0,1-2.11-3.21,11.2,11.2,0,0,1-.77-4.29,11.32,11.32,0,0,1,.77-4.34,9.73,9.73,0,0,1,2.11-3.23,8.79,8.79,0,0,1,3.05-2,10.19,10.19,0,0,1,7.32,0,8.83,8.83,0,0,1,3.06,2,9.89,9.89,0,0,1,2.11,3.23,11.51,11.51,0,0,1,.77,4.34,11.39,11.39,0,0,1-.77,4.29,9.69,9.69,0,0,1-2.11,3.21,8.89,8.89,0,0,1-3.06,2A9.8,9.8,0,0,1,1309.57,57.71Zm0-2.73a5.81,5.81,0,0,0,2.54-.54,5.56,5.56,0,0,0,2-1.51,6.93,6.93,0,0,0,1.26-2.34,9.66,9.66,0,0,0,.44-3,9.9,9.9,0,0,0-.44-3.07,7,7,0,0,0-1.26-2.38,5.76,5.76,0,0,0-2-1.54,6,6,0,0,0-2.54-.54,6,6,0,0,0-2.54.54,5.86,5.86,0,0,0-2,1.54,7.4,7.4,0,0,0-1.26,2.38,10.21,10.21,0,0,0-.44,3.07,10,10,0,0,0,.44,3,7.3,7.3,0,0,0,1.26,2.34,5.65,5.65,0,0,0,2,1.51A5.87,5.87,0,0,0,1309.57,55Z"/>
      <path d="M1332.41,57.71A8.38,8.38,0,0,1,1329,57a7.54,7.54,0,0,1-2.66-2,9.12,9.12,0,0,1-1.72-3.19,14.16,14.16,0,0,1-.6-4.31,11.77,11.77,0,0,1,.74-4.27,10.32,10.32,0,0,1,2-3.22,8.93,8.93,0,0,1,2.82-2,8.2,8.2,0,0,1,3.32-.72A7,7,0,0,1,1336,38a10.23,10.23,0,0,1,2.66,1.85h.12l-.16-3.6V28.74h3.28V57.22h-2.72l-.28-2.55h-.12a11.53,11.53,0,0,1-2.86,2.13A7.16,7.16,0,0,1,1332.41,57.71Zm.68-2.77q2.88,0,5.48-2.92V42.34a8.67,8.67,0,0,0-2.58-1.75,6.54,6.54,0,0,0-2.54-.53,5.36,5.36,0,0,0-2.38.54,6,6,0,0,0-1.92,1.53,7.55,7.55,0,0,0-1.3,2.34,9,9,0,0,0-.48,3,8.81,8.81,0,0,0,1.5,5.47A5,5,0,0,0,1333.09,54.94Z"/>
      <path d="M1358.77,57.71a12,12,0,0,1-4.1-.69,9.33,9.33,0,0,1-5.56-5.22,10.93,10.93,0,0,1-.82-4.33,10.67,10.67,0,0,1,.82-4.25,9.86,9.86,0,0,1,2.2-3.2,9.56,9.56,0,0,1,3.16-2,10.11,10.11,0,0,1,3.74-.71A9.82,9.82,0,0,1,1362,38a7.57,7.57,0,0,1,2.8,1.85,8.19,8.19,0,0,1,1.74,2.89,10.91,10.91,0,0,1,.6,3.72c0,.37,0,.73,0,1.08a5.88,5.88,0,0,1-.12.92h-15.32a6.85,6.85,0,0,0,2.42,5,8,8,0,0,0,5.14,1.66,9.31,9.31,0,0,0,3.18-.5,13.11,13.11,0,0,0,2.74-1.34l1.2,2.16A15.39,15.39,0,0,1,1363,57,12,12,0,0,1,1358.77,57.71Zm-.48-17.81a6.87,6.87,0,0,0-2.3.4,6.73,6.73,0,0,0-2,1.14,6.54,6.54,0,0,0-1.48,1.86,8.29,8.29,0,0,0-.84,2.56h12.4a6.56,6.56,0,0,0-1.74-4.48A5.63,5.63,0,0,0,1358.29,39.9Z"/>
      <path d="M1375.41,57.22V37.78h2.72l.28,4.6h.12a11.71,11.71,0,0,1,3.74-3.71,9.26,9.26,0,0,1,4.94-1.37,10.4,10.4,0,0,1,2,.18,7.68,7.68,0,0,1,1.84.62l-.76,2.84a17.26,17.26,0,0,0-1.74-.51,8.28,8.28,0,0,0-1.86-.17,7.88,7.88,0,0,0-4.22,1.26,12.2,12.2,0,0,0-3.78,4.3v11.4Z"/>
      <path d="M1405.57,43.38a3.18,3.18,0,0,1-2.3-.91,3.31,3.31,0,0,1-.94-2.45,3.36,3.36,0,0,1,.94-2.46,3.16,3.16,0,0,1,2.3-.93,3.13,3.13,0,0,1,2.3.93,3.32,3.32,0,0,1,.94,2.46,3.27,3.27,0,0,1-.94,2.45A3.15,3.15,0,0,1,1405.57,43.38Zm0,14.33a3.16,3.16,0,0,1-2.3-.93,3.27,3.27,0,0,1-.94-2.44,3.36,3.36,0,0,1,.94-2.46,3.17,3.17,0,0,1,2.3-.94,3.14,3.14,0,0,1,2.3.94,3.32,3.32,0,0,1,.94,2.46,3.23,3.23,0,0,1-.94,2.44A3.13,3.13,0,0,1,1405.57,57.71Z"/>
      <path d="M1429.05,57.71a12.49,12.49,0,0,1-5.56-1.11,13.46,13.46,0,0,1-3.64-2.5l1.68-2.16a13.7,13.7,0,0,0,3.06,2.12,9.11,9.11,0,0,0,4.26.92,8.22,8.22,0,0,0,2.44-.34,6.36,6.36,0,0,0,1.94-.93,4.27,4.27,0,0,0,1.28-1.47,4,4,0,0,0,.46-1.94,4.05,4.05,0,0,0-2.12-3.67,8.56,8.56,0,0,0-2.88-1,20.9,20.9,0,0,0-4.28-.37V42.71a17,17,0,0,0,3.86-.37,7.94,7.94,0,0,0,2.58-1,3.89,3.89,0,0,0,1.92-3.4,3.52,3.52,0,0,0-1.42-3,6.06,6.06,0,0,0-3.78-1.08,8.06,8.06,0,0,0-3.4.73,10.76,10.76,0,0,0-2.88,1.88l-1.76-2.08a13.79,13.79,0,0,1,3.64-2.3,10.93,10.93,0,0,1,4.52-.91,11.83,11.83,0,0,1,3.34.45,8.4,8.4,0,0,1,2.68,1.26,5.71,5.71,0,0,1,1.78,2,5.78,5.78,0,0,1,.64,2.77,5.06,5.06,0,0,1-1.52,3.8,10.09,10.09,0,0,1-3.92,2.27v.16a11.3,11.3,0,0,1,2.42.82,8,8,0,0,1,2,1.37,5.83,5.83,0,0,1,1.38,1.89,5.59,5.59,0,0,1,.5,2.41,6.4,6.4,0,0,1-.72,3,6.79,6.79,0,0,1-2,2.29,9.39,9.39,0,0,1-2.94,1.45A12.68,12.68,0,0,1,1429.05,57.71Z"/>
      <path d="M1453.57,57.71a3.15,3.15,0,0,1-2.3-.93,3.27,3.27,0,0,1-.94-2.44,3.36,3.36,0,0,1,.94-2.46,3.28,3.28,0,0,1,4.6,0,3.32,3.32,0,0,1,.94,2.46,3.23,3.23,0,0,1-.94,2.44A3.15,3.15,0,0,1,1453.57,57.71Z"/>
      <path d="M1477.57,57.71a7.79,7.79,0,0,1-6.72-3.47q-2.43-3.45-2.44-9.86t2.44-9.79a8.39,8.39,0,0,1,13.44,0q2.45,3.34,2.44,9.79t-2.44,9.86A7.78,7.78,0,0,1,1477.57,57.71Zm0-2.65a5.06,5.06,0,0,0,4.38-2.59c1.13-1.74,1.7-4.43,1.7-8.09a21.84,21.84,0,0,0-.44-4.74,10.21,10.21,0,0,0-1.26-3.28,5.21,5.21,0,0,0-1.94-1.89,5.19,5.19,0,0,0-4.88,0,5.28,5.28,0,0,0-1.94,1.89,10.7,10.7,0,0,0-1.26,3.28,22.49,22.49,0,0,0-.44,4.74c0,3.66.57,6.35,1.7,8.09A5.06,5.06,0,0,0,1477.57,55.06Zm0-8.28a2.46,2.46,0,0,1-1.74-.69,2.63,2.63,0,0,1-.74-2,2.53,2.53,0,0,1,.74-1.93,2.51,2.51,0,0,1,3.48,0,2.5,2.5,0,0,1,.74,1.93,2.59,2.59,0,0,1-.74,2A2.46,2.46,0,0,1,1477.57,46.78Z"/>
      <path d="M1501.57,57.71a3.15,3.15,0,0,1-2.3-.93,3.27,3.27,0,0,1-.94-2.44,3.36,3.36,0,0,1,.94-2.46,3.28,3.28,0,0,1,4.6,0,3.32,3.32,0,0,1,.94,2.46,3.23,3.23,0,0,1-.94,2.44A3.15,3.15,0,0,1,1501.57,57.71Z"/>
      <path d="M1516.49,57.22v-2q3.24-2.88,5.74-5.2a55,55,0,0,0,4.2-4.26,19.26,19.26,0,0,0,2.58-3.62,7,7,0,0,0,.88-3.28,5,5,0,0,0-1.36-3.6,5.65,5.65,0,0,0-4.2-1.4,6.61,6.61,0,0,0-3.34.9,13.06,13.06,0,0,0-2.78,2.18l-1.88-1.88a15.46,15.46,0,0,1,3.7-2.82,9.91,9.91,0,0,1,4.7-1.06,10.43,10.43,0,0,1,3.46.54,7.76,7.76,0,0,1,2.62,1.52,6.63,6.63,0,0,1,1.66,2.39,7.88,7.88,0,0,1,.58,3.07,8.45,8.45,0,0,1-.86,3.62,19,19,0,0,1-2.42,3.77,47.13,47.13,0,0,1-3.72,4q-2.16,2.09-4.76,4.46l2.4-.16c.8-.06,1.59-.09,2.36-.09h8.4v2.84Z"/>
      <path d="M1574,57.71a15.28,15.28,0,0,1-5.32-.91,18.87,18.87,0,0,1-4.24-2.13l1.52-2.16a15.63,15.63,0,0,0,3.7,1.92,14.42,14.42,0,0,0,4.74.71,6.23,6.23,0,0,0,3.7-.9,2.62,2.62,0,0,0,1.22-2.14,2.75,2.75,0,0,0-.2-1,2.22,2.22,0,0,0-.86-.92,8.26,8.26,0,0,0-1.86-.84,28.24,28.24,0,0,0-3.16-.79,15.72,15.72,0,0,1-5.7-2.15,4.12,4.12,0,0,1-1.9-3.54,4.7,4.7,0,0,1,.52-2.18,5.12,5.12,0,0,1,1.54-1.76,8.17,8.17,0,0,1,2.52-1.16,13.06,13.06,0,0,1,3.5-.42,12.67,12.67,0,0,1,4.32.75,15,15,0,0,1,3.52,1.73l-1.6,2.12a12.68,12.68,0,0,0-3-1.47,10.65,10.65,0,0,0-3.52-.57,5.44,5.44,0,0,0-3.48.85,2.47,2.47,0,0,0-1,2,2.07,2.07,0,0,0,1.32,1.93,18.77,18.77,0,0,0,4.32,1.3,29,29,0,0,1,4,1.11A8.76,8.76,0,0,1,1581,48.3a3.92,3.92,0,0,1,1.24,1.6,5.48,5.48,0,0,1,.34,2,4.65,4.65,0,0,1-.56,2.24,5.44,5.44,0,0,1-1.66,1.84,8.25,8.25,0,0,1-2.72,1.26A13.41,13.41,0,0,1,1574,57.71Z"/>
      <path d="M1595.41,57.71a8.22,8.22,0,0,1-2.56-.39,6.52,6.52,0,0,1-2.1-1.08,5,5,0,0,1-1.42-1.72,5,5,0,0,1-.52-2.34,5.22,5.22,0,0,1,.78-2.86,6.33,6.33,0,0,1,2.48-2.1,17.81,17.81,0,0,1,4.38-1.44,56.9,56.9,0,0,1,6.44-.88,7.18,7.18,0,0,0-.32-1.88,4,4,0,0,0-2.46-2.59,6.23,6.23,0,0,0-2.38-.41,9.45,9.45,0,0,0-3.68.74,23.83,23.83,0,0,0-3.12,1.58l-1.28-2.24a16.86,16.86,0,0,1,1.7-1,17.88,17.88,0,0,1,2.08-.91,18.93,18.93,0,0,1,2.34-.66,12.53,12.53,0,0,1,2.52-.26q4,0,5.94,2.18a8.47,8.47,0,0,1,1.94,5.82V57.22h-2.68l-.28-2.63h-.12a18.45,18.45,0,0,1-3.62,2.19A9.44,9.44,0,0,1,1595.41,57.71Zm.88-2.65a7.77,7.77,0,0,0,3.3-.74,14.52,14.52,0,0,0,3.3-2.14V47.06a42.28,42.28,0,0,0-5.22.68,15,15,0,0,0-3.36,1.06,4.43,4.43,0,0,0-1.78,1.41,3,3,0,0,0-.52,1.73,2.6,2.6,0,0,0,.36,1.42,3,3,0,0,0,.94,1,4.06,4.06,0,0,0,1.36.56A6.65,6.65,0,0,0,1596.29,55.06Z"/>
      <path d="M1611.89,57.22V37.78h2.64l.28,2.56h.08a8,8,0,0,1,1.76-2.2,4.09,4.09,0,0,1,2.68-.84c1.89,0,3.12,1.13,3.68,3.37a8.66,8.66,0,0,1,1.86-2.46,3.89,3.89,0,0,1,2.7-.91,3.75,3.75,0,0,1,3.18,1.54,7.44,7.44,0,0,1,1.14,4.46V57.22h-3.28V43.55c0-2.27-.69-3.41-2.08-3.41a2.13,2.13,0,0,0-1.68.74,12.42,12.42,0,0,0-1.44,2.26V57.22h-3V43.55a5.48,5.48,0,0,0-.46-2.54,1.61,1.61,0,0,0-1.54-.87,2.38,2.38,0,0,0-1.76.74,8.66,8.66,0,0,0-1.44,2.26V57.22Z"/>
      <path d="M1637.29,65.43V37.78H1640l.28,2.48h.12a12.2,12.2,0,0,1,3.14-2.12,8.44,8.44,0,0,1,3.58-.84,8,8,0,0,1,3.46.71,6.73,6.73,0,0,1,2.52,2,8.94,8.94,0,0,1,1.54,3.12,15.14,15.14,0,0,1,.52,4.09,12.61,12.61,0,0,1-.72,4.42,10.11,10.11,0,0,1-1.94,3.3,8.21,8.21,0,0,1-2.82,2.07,8.43,8.43,0,0,1-3.36.7,7.83,7.83,0,0,1-2.94-.66,9.75,9.75,0,0,1-2.86-1.87h-.12l.16,3.68v6.57Zm8.48-10.49a5.34,5.34,0,0,0,4.32-2,8.67,8.67,0,0,0,1.68-5.68,12.62,12.62,0,0,0-.32-2.92,6.7,6.7,0,0,0-1-2.25,4.44,4.44,0,0,0-1.7-1.46,5.46,5.46,0,0,0-2.48-.53,6.46,6.46,0,0,0-2.74.7,11.11,11.11,0,0,0-3,2.22v9.69a9.21,9.21,0,0,0,2.8,1.76A7.19,7.19,0,0,0,1645.77,54.94Z"/>
      <path d="M1673.85,57.71a6.17,6.17,0,0,1-4.76-1.77,7.39,7.39,0,0,1-1.64-5.23V31.43h-6.92V28.74h10.2v22.2a3.48,3.48,0,0,0,3.84,4,8.69,8.69,0,0,0,3.64-.88l.84,2.45a19.84,19.84,0,0,1-2.48.85A10.61,10.61,0,0,1,1673.85,57.71Z"/>
      <path d="M1694.77,57.71a11.92,11.92,0,0,1-4.1-.69,9.49,9.49,0,0,1-3.32-2,9.27,9.27,0,0,1-2.24-3.22,10.75,10.75,0,0,1-.82-4.33,10.5,10.5,0,0,1,.82-4.25,9.71,9.71,0,0,1,2.2-3.2,9.46,9.46,0,0,1,3.16-2,10,10,0,0,1,3.74-.71A9.85,9.85,0,0,1,1698,38a7.57,7.57,0,0,1,2.8,1.85,8.19,8.19,0,0,1,1.74,2.89,10.91,10.91,0,0,1,.6,3.72c0,.37,0,.73,0,1.08s-.07.65-.12.92h-15.32a6.81,6.81,0,0,0,2.42,5,8,8,0,0,0,5.14,1.66,9.39,9.39,0,0,0,3.18-.5,13.11,13.11,0,0,0,2.74-1.34l1.2,2.16A15.39,15.39,0,0,1,1699,57,12.09,12.09,0,0,1,1694.77,57.71Zm-.48-17.81a6.82,6.82,0,0,0-2.3.4,6.73,6.73,0,0,0-2,1.14,6.37,6.37,0,0,0-1.48,1.86,8.29,8.29,0,0,0-.84,2.56h12.4a6.56,6.56,0,0,0-1.74-4.48A5.65,5.65,0,0,0,1694.29,39.9Z"/>
      <path d="M1708,62.82V60h19.2v2.84Z"/>
      <path d="M1739.41,57.71a8.22,8.22,0,0,1-2.56-.39,6.52,6.52,0,0,1-2.1-1.08,4.84,4.84,0,0,1-1.42-1.72,5,5,0,0,1-.52-2.34,5.22,5.22,0,0,1,.78-2.86,6.26,6.26,0,0,1,2.48-2.1,17.81,17.81,0,0,1,4.38-1.44,56.58,56.58,0,0,1,6.44-.88,7.62,7.62,0,0,0-.32-1.88,4,4,0,0,0-2.46-2.59,6.26,6.26,0,0,0-2.38-.41,9.45,9.45,0,0,0-3.68.74,22.63,22.63,0,0,0-3.12,1.58l-1.28-2.24a15.81,15.81,0,0,1,1.7-1,17.16,17.16,0,0,1,2.08-.91,18.93,18.93,0,0,1,2.34-.66,12.38,12.38,0,0,1,2.52-.26q4,0,5.94,2.18a8.47,8.47,0,0,1,1.94,5.82V57.22h-2.68l-.28-2.63h-.12a18.75,18.75,0,0,1-3.62,2.19A9.48,9.48,0,0,1,1739.41,57.71Zm.88-2.65a7.77,7.77,0,0,0,3.3-.74,14.52,14.52,0,0,0,3.3-2.14V47.06a42.28,42.28,0,0,0-5.22.68,15,15,0,0,0-3.36,1.06,4.36,4.36,0,0,0-1.78,1.41,3,3,0,0,0-.52,1.73,2.6,2.6,0,0,0,.36,1.42,3,3,0,0,0,.94,1,4,4,0,0,0,1.36.56A6.65,6.65,0,0,0,1740.29,55.06Z"/>
      <path d="M1764.41,57.71A8.35,8.35,0,0,1,1761,57a7.37,7.37,0,0,1-2.66-2,9,9,0,0,1-1.72-3.19,14.16,14.16,0,0,1-.6-4.31,11.56,11.56,0,0,1,.74-4.27,10,10,0,0,1,2-3.22,8.71,8.71,0,0,1,2.82-2,8.13,8.13,0,0,1,3.32-.72A7.06,7.06,0,0,1,1768,38a10.4,10.4,0,0,1,2.66,1.85h.12l-.16-3.6V28.74h3.28V57.22h-2.72l-.28-2.55h-.12a11.72,11.72,0,0,1-2.86,2.13A7.19,7.19,0,0,1,1764.41,57.71Zm.68-2.77c1.92,0,3.74-1,5.48-2.92V42.34a8.67,8.67,0,0,0-2.58-1.75,6.57,6.57,0,0,0-2.54-.53,5.3,5.3,0,0,0-2.38.54,5.78,5.78,0,0,0-1.92,1.53,7.35,7.35,0,0,0-1.3,2.34,9,9,0,0,0-.48,3,8.81,8.81,0,0,0,1.5,5.47A5,5,0,0,0,1765.09,54.94Z"/>
      <path d="M1788.41,57.71A8.35,8.35,0,0,1,1785,57a7.37,7.37,0,0,1-2.66-2,9,9,0,0,1-1.72-3.19,14.16,14.16,0,0,1-.6-4.31,11.56,11.56,0,0,1,.74-4.27,10,10,0,0,1,2-3.22,8.71,8.71,0,0,1,2.82-2,8.13,8.13,0,0,1,3.32-.72A7.06,7.06,0,0,1,1792,38a10.4,10.4,0,0,1,2.66,1.85h.12l-.16-3.6V28.74h3.28V57.22h-2.72l-.28-2.55h-.12a11.72,11.72,0,0,1-2.86,2.13A7.19,7.19,0,0,1,1788.41,57.71Zm.68-2.77c1.92,0,3.74-1,5.48-2.92V42.34a8.67,8.67,0,0,0-2.58-1.75,6.57,6.57,0,0,0-2.54-.53,5.3,5.3,0,0,0-2.38.54,5.78,5.78,0,0,0-1.92,1.53,7.35,7.35,0,0,0-1.3,2.34,9,9,0,0,0-.48,3,8.81,8.81,0,0,0,1.5,5.47A5,5,0,0,0,1789.09,54.94Z"/>
      <path d="M1807.41,57.22V37.78h2.72l.28,4.6h.12a11.61,11.61,0,0,1,3.74-3.71,9.23,9.23,0,0,1,4.94-1.37,10.47,10.47,0,0,1,2,.18,8,8,0,0,1,1.84.62l-.76,2.84c-.7-.23-1.28-.41-1.74-.51a8.41,8.41,0,0,0-1.86-.17,7.83,7.83,0,0,0-4.22,1.26,12,12,0,0,0-3.78,4.3v11.4Z"/>
      <path d="M1838.77,57.71a11.88,11.88,0,0,1-4.1-.69,9.4,9.4,0,0,1-3.32-2,9.27,9.27,0,0,1-2.24-3.22,10.75,10.75,0,0,1-.82-4.33,10.5,10.5,0,0,1,.82-4.25,9.71,9.71,0,0,1,2.2-3.2,9.46,9.46,0,0,1,3.16-2,10,10,0,0,1,3.74-.71A9.89,9.89,0,0,1,1842,38a7.66,7.66,0,0,1,2.8,1.85,8.19,8.19,0,0,1,1.74,2.89,10.91,10.91,0,0,1,.6,3.72c0,.37,0,.73,0,1.08s-.07.65-.12.92h-15.32a6.81,6.81,0,0,0,2.42,5,8,8,0,0,0,5.14,1.66,9.39,9.39,0,0,0,3.18-.5,13.35,13.35,0,0,0,2.74-1.34l1.2,2.16A15.39,15.39,0,0,1,1843,57,12.09,12.09,0,0,1,1838.77,57.71Zm-.48-17.81a6.82,6.82,0,0,0-2.3.4,6.48,6.48,0,0,0-2,1.14,6.37,6.37,0,0,0-1.48,1.86,8.29,8.29,0,0,0-.84,2.56h12.4a6.66,6.66,0,0,0-1.74-4.48A5.65,5.65,0,0,0,1838.29,39.9Z"/>
      <path d="M1862,57.71a15.23,15.23,0,0,1-5.32-.91,18.87,18.87,0,0,1-4.24-2.13l1.52-2.16a15.63,15.63,0,0,0,3.7,1.92,14.33,14.33,0,0,0,4.74.71,6.25,6.25,0,0,0,3.7-.9,2.62,2.62,0,0,0,1.22-2.14,2.75,2.75,0,0,0-.2-1,2.29,2.29,0,0,0-.86-.92,8.26,8.26,0,0,0-1.86-.84,28.82,28.82,0,0,0-3.16-.79,15.57,15.57,0,0,1-5.7-2.15,4.12,4.12,0,0,1-1.9-3.54,4.7,4.7,0,0,1,.52-2.18,5,5,0,0,1,1.54-1.76,8.17,8.17,0,0,1,2.52-1.16,13,13,0,0,1,3.5-.42,12.67,12.67,0,0,1,4.32.75,15.19,15.19,0,0,1,3.52,1.73l-1.6,2.12a12.68,12.68,0,0,0-3-1.47,10.69,10.69,0,0,0-3.52-.57,5.4,5.4,0,0,0-3.48.85,2.47,2.47,0,0,0-1,2,2.07,2.07,0,0,0,1.32,1.93,18.77,18.77,0,0,0,4.32,1.3,29.41,29.41,0,0,1,4,1.11A8.76,8.76,0,0,1,1869,48.3a3.92,3.92,0,0,1,1.24,1.6,5.7,5.7,0,0,1,.34,2,4.65,4.65,0,0,1-.56,2.24,5.54,5.54,0,0,1-1.66,1.84,8.35,8.35,0,0,1-2.72,1.26A13.46,13.46,0,0,1,1862,57.71Z"/>
      <path d="M1886,57.71a15.23,15.23,0,0,1-5.32-.91,18.87,18.87,0,0,1-4.24-2.13l1.52-2.16a15.63,15.63,0,0,0,3.7,1.92,14.33,14.33,0,0,0,4.74.71,6.25,6.25,0,0,0,3.7-.9,2.62,2.62,0,0,0,1.22-2.14,2.75,2.75,0,0,0-.2-1,2.29,2.29,0,0,0-.86-.92,8.26,8.26,0,0,0-1.86-.84,28.82,28.82,0,0,0-3.16-.79,15.57,15.57,0,0,1-5.7-2.15,4.12,4.12,0,0,1-1.9-3.54,4.7,4.7,0,0,1,.52-2.18,5,5,0,0,1,1.54-1.76,8.17,8.17,0,0,1,2.52-1.16,13,13,0,0,1,3.5-.42,12.67,12.67,0,0,1,4.32.75,15.19,15.19,0,0,1,3.52,1.73l-1.6,2.12a12.68,12.68,0,0,0-3-1.47,10.69,10.69,0,0,0-3.52-.57,5.4,5.4,0,0,0-3.48.85,2.47,2.47,0,0,0-1,2,2.07,2.07,0,0,0,1.32,1.93,18.77,18.77,0,0,0,4.32,1.3,29.41,29.41,0,0,1,4,1.11A8.76,8.76,0,0,1,1893,48.3a3.92,3.92,0,0,1,1.24,1.6,5.7,5.7,0,0,1,.34,2,4.65,4.65,0,0,1-.56,2.24,5.54,5.54,0,0,1-1.66,1.84,8.35,8.35,0,0,1-2.72,1.26A13.46,13.46,0,0,1,1886,57.71Z"/>
      <path d="M1910.77,57.71a12,12,0,0,1-4.11-.69,9.44,9.44,0,0,1-3.31-2,9.27,9.27,0,0,1-2.24-3.22,10.75,10.75,0,0,1-.83-4.33,10.5,10.5,0,0,1,.83-4.25,9.71,9.71,0,0,1,2.2-3.2,9.46,9.46,0,0,1,3.16-2,10,10,0,0,1,3.73-.71,9.82,9.82,0,0,1,3.74.67,7.57,7.57,0,0,1,2.8,1.85,8,8,0,0,1,1.74,2.89,10.68,10.68,0,0,1,.6,3.72q0,.55,0,1.08c0,.34-.07.65-.12.92h-15.32a6.81,6.81,0,0,0,2.41,5,8,8,0,0,0,5.14,1.66,9.41,9.41,0,0,0,3.19-.5,13.28,13.28,0,0,0,2.73-1.34l1.2,2.16A15.17,15.17,0,0,1,1915,57,12,12,0,0,1,1910.77,57.71Zm-.49-17.81a6.87,6.87,0,0,0-2.3.4,6.32,6.32,0,0,0-3.46,3,8.28,8.28,0,0,0-.83,2.56h12.39a6.61,6.61,0,0,0-1.73-4.48A5.66,5.66,0,0,0,1910.28,39.9Z"/>
      <path d="M1934,57.71a15.23,15.23,0,0,1-5.32-.91,19.17,19.17,0,0,1-4.25-2.13l1.53-2.16a15.75,15.75,0,0,0,3.69,1.92,14.42,14.42,0,0,0,4.74.71,6.21,6.21,0,0,0,3.7-.9,2.57,2.57,0,0,0,1-3.18,2.25,2.25,0,0,0-.85-.92,8.58,8.58,0,0,0-1.87-.84,28.24,28.24,0,0,0-3.16-.79,15.58,15.58,0,0,1-5.69-2.15,4.12,4.12,0,0,1-1.9-3.54,4.82,4.82,0,0,1,.51-2.18,5.12,5.12,0,0,1,1.54-1.76,8.34,8.34,0,0,1,2.53-1.16,13,13,0,0,1,3.5-.42,12.67,12.67,0,0,1,4.32.75,15.11,15.11,0,0,1,3.51,1.73l-1.59,2.12a12.68,12.68,0,0,0-3-1.47,10.71,10.71,0,0,0-3.53-.57,5.39,5.39,0,0,0-3.47.85,2.47,2.47,0,0,0-1,2,2.06,2.06,0,0,0,1.31,1.93,18.77,18.77,0,0,0,4.32,1.3,29,29,0,0,1,4,1.11A8.49,8.49,0,0,1,1941,48.3a4,4,0,0,1,1.25,1.6,5.7,5.7,0,0,1,.34,2,4.65,4.65,0,0,1-.56,2.24,5.54,5.54,0,0,1-1.66,1.84,8.41,8.41,0,0,1-2.73,1.26A13.38,13.38,0,0,1,1934,57.71Z"/>
      <path d="M1957.56,57.71a3.12,3.12,0,0,1-2.29-.93,3.24,3.24,0,0,1-1-2.44,3.33,3.33,0,0,1,1-2.46,3.27,3.27,0,0,1,4.59,0,3.33,3.33,0,0,1,1,2.46,3.24,3.24,0,0,1-1,2.44A3.13,3.13,0,0,1,1957.56,57.71Z"/>
      <path d="M1983.4,57.71a12.54,12.54,0,0,1-4.22-.69,9.9,9.9,0,0,1-3.38-2,9,9,0,0,1-2.24-3.21,11,11,0,0,1-.8-4.29,10.44,10.44,0,0,1,.86-4.34A9.7,9.7,0,0,1,1976,40a10.17,10.17,0,0,1,3.46-2,12.9,12.9,0,0,1,4.18-.68,9.58,9.58,0,0,1,4.14.84,11.51,11.51,0,0,1,2.94,2L1989,42.26a10.3,10.3,0,0,0-2.5-1.63,6.46,6.46,0,0,0-2.82-.61,8.74,8.74,0,0,0-3.08.54,6.94,6.94,0,0,0-2.38,1.54,7.46,7.46,0,0,0-1.54,2.38,8.76,8.76,0,0,0,0,6.11,7,7,0,0,0,1.52,2.34,6.73,6.73,0,0,0,2.36,1.51,8.33,8.33,0,0,0,3.06.54,7.66,7.66,0,0,0,3.3-.7,11.42,11.42,0,0,0,2.7-1.73l1.48,2.12a12.51,12.51,0,0,1-3.6,2.23A10.66,10.66,0,0,1,1983.4,57.71Z"/>
      <path d="M2006,57.71a15.28,15.28,0,0,1-5.32-.91,19.08,19.08,0,0,1-4.24-2.13l1.52-2.16a15.82,15.82,0,0,0,3.7,1.92,14.42,14.42,0,0,0,4.74.71,6.21,6.21,0,0,0,3.7-.9,2.57,2.57,0,0,0,1-3.18,2.22,2.22,0,0,0-.86-.92,8.26,8.26,0,0,0-1.86-.84,28.24,28.24,0,0,0-3.16-.79,15.72,15.72,0,0,1-5.7-2.15,4.15,4.15,0,0,1-1.9-3.54,4.83,4.83,0,0,1,.52-2.18,5.12,5.12,0,0,1,1.54-1.76,8.17,8.17,0,0,1,2.52-1.16,13.06,13.06,0,0,1,3.5-.42,12.58,12.58,0,0,1,4.32.75,15,15,0,0,1,3.52,1.73l-1.6,2.12a12.31,12.31,0,0,0-3-1.47,10.61,10.61,0,0,0-3.52-.57,5.44,5.44,0,0,0-3.48.85,2.5,2.5,0,0,0-1,2,2.07,2.07,0,0,0,1.32,1.93,18.77,18.77,0,0,0,4.32,1.3,29,29,0,0,1,4,1.11A8.76,8.76,0,0,1,2013,48.3a3.83,3.83,0,0,1,1.24,1.6,5.48,5.48,0,0,1,.34,2,4.54,4.54,0,0,1-.56,2.24,5.33,5.33,0,0,1-1.66,1.84,8.25,8.25,0,0,1-2.72,1.26A13.41,13.41,0,0,1,2006,57.71Z"/>
      <path d="M2027.8,57.22l-8.2-19.44h3.32l4.48,11c.4,1,.78,2,1.14,2.9s.72,1.89,1.06,2.83h.16c.35-.94.69-1.88,1-2.83s.7-1.91,1.1-2.9l4.48-11h3.16l-8,19.44Z"/>
    </g>
  </g>
</svg>
